<?xml version="1.0" standalone="no"?><!DOCTYPE svg PUBLIC "-//W3C//DTD SVG 1.1//EN" "http://www.w3.org/Graphics/SVG/1.1/DTD/svg11.dtd"><svg t="1700975650129" class="icon" viewBox="0 0 1024 1024" version="1.1" xmlns="http://www.w3.org/2000/svg" p-id="41071" width="32" height="32" xmlns:xlink="http://www.w3.org/1999/xlink"><path d="M709.211 398.597s-2.43 40.333-32.072 80.91c0 0 13.606 24.783 14.092 28.428 0 0 36.446-53.454 40.333-117.598 0.001-0.001-18.708 8.017-22.353 8.26zM748.816 383.047l26.241-12.149s-4.859 105.693-67.789 183.444l-8.504-28.914s43.492-50.538 50.052-142.381z" p-id="41072" fill="#ffffff"></path><path d="M792.308 362.637l29.643-13.606s1.458 146.269-107.393 252.691l-3.888-28.185c-0.001 0 68.031-55.884 81.638-210.9z" p-id="41073" fill="#ffffff"></path><path d="M837.986 341.742l41.791-15.55s-19.924 38.875-25.269 66.088c0 0-13.12 106.422-47.136 161.819 0 0-24.783 49.08-92.329 105.45l0.972-37.418s112.253-83.096 121.971-280.389z" p-id="41074" fill="#ffffff"></path><path d="M901.645 320.117l27.699-1.458s-25.512 44.464-33.53 91.114c0 0-19.681 112.982-59.771 180.771 0 0-34.988 64.873-129.018 123.187l5.102-32.072s81.638-40.819 134.12-174.94c0 0 14.578-46.651 19.681-86.012 0 0.001 6.56-52.481 35.717-100.59z" p-id="41075" fill="#ffffff"></path><path d="M948.296 318.66l22.596 0.729s-24.783 32.801-31.343 72.163c0 0-24.783 131.205-48.837 176.397 0 0-58.313 137.765-195.349 190.976l5.102-21.139s141.41-61.958 189.518-235.44c0 0 28.428-141.41 45.922-164.735l12.391-18.951z" p-id="41076" fill="#ffffff"></path><path d="M989.844 320.117l27.699 1.458s-50.295 71.434-46.651 147.97c0 0-5.102 174.211-16.036 217.946 0 0-21.867 140.681-177.126 139.223 0 0 34.988-47.379 39.361-90.385 0 0-48.837 50.295-133.391 61.958l5.102-19.681s135.578-35.717 220.132-209.199c0 0 26.241-69.976 40.819-145.783 0-0.001 8.747-71.434 40.091-103.507zM834.099 176.035s-87.956-9.719-171.052 44.221c0 0-58.799 41.791-117.598 114.683s-128.13 186.898-261.438 131.205c0 0 61.715 2.916 105.936-15.064 0 0-49.08-24.297-22.353-75.321 0 0 13.606-26.727 65.116-47.136 0 0 81.638-23.325 94.273-38.39 0 0 37.418-32.558 34.988-83.582 0 0-164.735-34.502-217.703 4.859 0 0-41.305 33.53-56.369 69.004 0 0-41.791-52.968-54.426-64.145 0 0-26.727-25.755-110.795-21.381l-75.807 5.831-34.988 5.831s-13.606 84.554 94.273 115.169c0 0 89.9 17.494 114.683 51.51 0 0 18.466 23.325 17.494 74.835 0 0 1.944 267.269 257.064 346.478 0 0 1.944-233.253 79.695-273.586 0 0-37.418 57.341-48.108 163.763 0 0-4.859 74.349-2.916 130.233 0 0-2.43 55.884-49.08 97.675-1.458 0.972 155.502-4.859 201.667-183.201 0 0 30.614-133.148-9.233-262.895 0 0 23.325-34.988 25.755-65.602l-44.707-1.944s-14.955 20.465-34.22 8.768c0 0-18.748-7.918-13.645-34.159 0 0 10.569-28.063 38.633-14.943 0 0 15.672 7.289 15.672 24.783 0 0 15.682 5.185 36.466 4.008 32.416-3.644 60.366-22.997 77.682-32.669 93.592-59.539 137.937-58.776 156.663-60.397 25.382-2.197 55.678-3.886 75.059-1.814-0.003 0-43.737-110.796-166.681-116.627zM325.845 649.233c-7.91 0-14.323-6.412-14.323-14.323 0-7.91 6.412-14.323 14.323-14.323 7.91 0 14.323 6.412 14.323 14.323-0.001 7.911-6.413 14.323-14.323 14.323z m36.488 49.788c-7.91 0-14.323-6.412-14.323-14.323 0-7.91 6.412-14.323 14.323-14.323s14.323 6.412 14.323 14.323c0 7.911-6.413 14.323-14.323 14.323z m20.802-40.58c-7.91 0-14.323-6.412-14.323-14.323 0-7.91 6.412-14.323 14.323-14.323 7.91 0 14.323 6.412 14.323 14.323-0.001 7.91-6.413 14.323-14.323 14.323z m27.963 81.161c-7.91 0-14.323-6.412-14.323-14.323 0-7.91 6.412-14.323 14.323-14.323 7.91 0 14.323 6.412 14.323 14.323-0.001 7.91-6.413 14.323-14.323 14.323z m4.433-48.765c-7.91 0-14.323-6.412-14.323-14.323 0-7.91 6.412-14.323 14.323-14.323 7.91 0 14.323 6.412 14.323 14.323 0 7.91-6.413 14.323-14.323 14.323z m10.23-54.903c0-7.91 6.412-14.323 14.323-14.323 7.91 0 14.323 6.412 14.323 14.323 0 7.91-6.412 14.323-14.323 14.323-7.91-0.001-14.323-6.413-14.323-14.323z m34.784 55.585c7.91 0 14.323 6.412 14.323 14.323 0 7.91-6.412 14.323-14.323 14.323-7.91 0-14.323-6.412-14.323-14.323 0-7.911 6.413-14.323 14.323-14.323z m3.41 76.387c-7.91 0-14.323-6.412-14.323-14.323 0-7.91 6.412-14.323 14.323-14.323 7.91 0 14.323 6.412 14.323 14.323-0.001 7.91-6.413 14.323-14.323 14.323z m12.617-89.346c-7.91 0-14.323-6.412-14.323-14.323 0-7.91 6.412-14.323 14.323-14.323 7.91 0 14.323 6.412 14.323 14.323 0 7.911-6.412 14.323-14.323 14.323z m16.369-53.198c-7.91 0-14.323-6.412-14.323-14.323 0-7.91 6.412-14.323 14.323-14.323 7.91 0 14.323 6.412 14.323 14.323 0 7.911-6.413 14.323-14.323 14.323z" p-id="41077" fill="#ffffff"></path></svg>