<?xml version="1.0" standalone="no"?>
<!DOCTYPE svg PUBLIC "-//W3C//DTD SVG 1.1//EN" "http://www.w3.org/Graphics/SVG/1.1/DTD/svg11.dtd">
<svg t="1609762036953" class="icon" viewBox="0 0 1024 1024" version="1.1" xmlns="http://www.w3.org/2000/svg" p-id="8586" xmlns:xlink="http://www.w3.org/1999/xlink" width="200" height="200">
	<defs>
		<style type="text/css">
		</style>
	</defs>
	<path d="M523.73504 319.29344h-204.8c-16.896 0-30.72-13.824-30.72-30.72s13.824-30.72 30.72-30.72h204.8c16.896 0 30.72 13.824 30.72 30.72s-13.824 30.72-30.72 30.72zM605.65504 452.41344h-286.72c-16.896 0-30.72-13.824-30.72-30.72s13.824-30.72 30.72-30.72h286.72c16.896 0 30.72 13.824 30.72 30.72s-13.824 30.72-30.72 30.72z" fill="#FFFFFF" p-id="8587">
	</path>
	<path d="M870.79936 641.01376l17.0496 61.35808c8.51968 28.9792-8.51968 57.9584-35.79904 64.768L453.19168 881.34656c-28.9792 8.51968-57.94816-8.51968-66.46784-35.79904l-17.03936-61.35808c25.55904-10.22976 39.19872-37.49888 30.67904-63.06816-6.81984-25.56928-34.08896-42.60864-59.65824-37.49888l-22.15936-73.28768c-8.51968-28.9792 8.51968-57.94816 35.79904-64.768l398.848-114.19648c28.9792-8.51968 57.9584 8.51968 66.46784 35.79904l20.45952 73.28768m30.67904 100.5568" fill="#D3830D" p-id="8588">
	</path>
	<path d="M886.13888 421.13024l40.9088 85.22752c18.74944 37.49888 3.40992 83.51744-35.79904 102.26688L356.03456 871.1168c-37.49888 18.74944-83.51744 3.40992-102.26688-35.79904l-40.9088-85.22752c32.38912-20.44928 44.31872-63.06816 27.26912-98.85696-17.0496-35.79904-57.94816-51.13856-95.45728-39.20896l-47.7184-98.85696c-18.74944-37.49888-3.40992-83.51744 35.79904-102.27712l535.21408-262.49216c37.49888-18.74944 83.51744-3.40992 102.26688 35.7888l49.42848 100.56704c-32.38912 20.44928-44.30848 63.06816-27.26912 98.85696 17.03936 34.10944 57.94816 51.15904 93.7472 37.51936z m0 0" fill="#F9B721" p-id="8589">
	</path>
	<path d="M383.31392 768.84992c-6.81984 0-11.9296-3.40992-15.33952-10.22976l-6.81984-15.33952c-3.40992-8.52992 0-18.74944 8.51968-22.15936 8.51968-3.40992 18.74944 0 22.15936 8.51968l6.81984 15.33952c3.40992 8.51968 0 18.74944-8.51968 22.15936-1.71008 1.71008-3.40992 1.71008-6.81984 1.71008z m-37.49888-76.70784c-6.81984 0-11.9296-3.40992-15.33952-10.22976l-6.81984-15.33952c-3.40992-8.51968 0-18.74944 8.51968-22.15936 8.51968-3.40992 18.74944 0 22.15936 8.51968l6.81984 15.33952c3.40992 8.51968 0 18.74944-8.51968 22.15936-1.71008 1.71008-3.42016 1.71008-6.81984 1.71008z m-37.49888-74.99776c-6.81984 0-11.9296-3.40992-15.33952-10.22976l-6.81984-15.33952c-3.40992-8.51968 0-18.74944 8.51968-22.15936 8.51968-3.40992 18.74944 0 22.15936 8.51968l6.81984 15.33952c3.40992 8.51968 0 18.74944-8.51968 22.15936-1.71008 0.01024-3.40992 1.71008-6.81984 1.71008z m-35.79904-76.6976c-6.81984 0-11.9296-3.40992-15.33952-10.22976l-6.81984-15.33952c-3.40992-8.51968 0-18.74944 8.51968-22.15936 8.51968-3.40992 18.74944 0 22.15936 8.51968l6.81984 15.33952c3.40992 8.51968 0 18.74944-8.51968 22.15936-1.71008 0-5.12 1.71008-6.81984 1.71008z m-37.49888-76.70784c-6.81984 0-11.9296-3.40992-15.33952-10.22976l-6.81984-15.33952c-3.40992-8.51968 0-18.74944 8.51968-22.15936 8.51968-3.40992 18.74944 0 22.15936 8.51968l6.81984 15.33952c3.40992 8.51968 0 18.74944-8.51968 22.15936-1.69984 0.01024-5.10976 1.71008-6.81984 1.71008z m0 0M374.784 424.54016l153.40544-74.99776a34.17088 34.17088 0 0 1 46.0288 15.33952 34.16064 34.16064 0 0 1-15.33952 46.01856l-153.40544 74.99776a34.17088 34.17088 0 0 1-46.0288-15.33952c-8.51968-17.03936 0-37.49888 15.33952-46.01856z m61.36832 122.71616l274.42176-134.656a34.14016 34.14016 0 0 1 46.01856 15.33952 34.16064 34.16064 0 0 1-15.33952 46.01856l-274.42176 134.656a34.17088 34.17088 0 0 1-46.0288-15.33952 34.17088 34.17088 0 0 1 15.34976-46.01856z m0 0" fill="#FFFFFF" p-id="8590">
	</path>
</svg>
