<?xml version="1.0" standalone="no"?>
<!DOCTYPE svg PUBLIC "-//W3C//DTD SVG 1.1//EN" "http://www.w3.org/Graphics/SVG/1.1/DTD/svg11.dtd">
<svg t="1591945246182" class="icon" viewBox="0 0 1189 1024" version="1.1" xmlns="http://www.w3.org/2000/svg" p-id="15938" xmlns:xlink="http://www.w3.org/1999/xlink" width="232.2265625" height="200">
	<defs>
		<style type="text/css">
		</style>
	</defs>
	<path d="M649.678 997.508l515.634-584.67a66.065 66.065 0 0 0 3.964-82.416L950.008 27.35A66.065 66.065 0 0 0 896.495 0H303.798a66.065 66.065 0 0 0-53.513 27.35L30.951 330.423a66.065 66.065 0 0 0 3.964 82.415l515.667 584.671a66.065 66.065 0 0 0 99.096 0z" fill="#2d8cf0" p-id="15939">
	</path>
	<path d="M350.637 379.772a49.548 49.548 0 0 0-73.662 66.263l272.748 303.07a82.58 82.58 0 0 0 122.748 0l272.747-303.07a49.548 49.548 0 0 0-73.662-66.263l-260.46 289.362-260.459-289.362z" fill="#ffffff" p-id="15940">
	</path>
</svg>
