<?xml version="1.0" standalone="no"?><!DOCTYPE svg PUBLIC "-//W3C//DTD SVG 1.1//EN" "http://www.w3.org/Graphics/SVG/1.1/DTD/svg11.dtd"><svg t="1647240665545" class="icon" viewBox="0 0 1024 1024" version="1.1" xmlns="http://www.w3.org/2000/svg" p-id="77733" xmlns:xlink="http://www.w3.org/1999/xlink" width="200" height="200"><defs><style type="text/css"></style></defs><path d="M618.1888 802.4064c-7.8848 0-15.7696-3.0208-21.8112-9.0624L390.144 585.7792a30.6688 30.6688 0 0 1 0.1536-43.4176 30.62272 30.62272 0 0 1 43.4176 0.1536L640 750.1312a30.6688 30.6688 0 0 1-0.1536 43.4176 30.83264 30.83264 0 0 1-21.6576 8.8576zM722.432 704.0512c-7.8848 0-15.7184-3.0208-21.7088-9.0112l-123.0848-123.0848a30.72 30.72 0 0 1 0-43.4176 30.72 30.72 0 0 1 43.4176 0l123.0848 123.0848a30.72 30.72 0 0 1 0 43.4176 30.464 30.464 0 0 1-21.7088 9.0112z" fill="#1976d2" p-id="77734"></path><path d="M904.6528 195.7376c-47.6672-47.6672-111.0016-73.8816-178.3808-73.8816-67.3792 0-130.7136 26.2656-178.3808 73.8816l-31.488 31.488-31.488-31.488c-98.3552-98.3552-258.4064-98.3552-356.7616 0-98.3552 98.3552-98.3552 258.4064 0 356.7616l322.048 322.048c18.2784 18.2272 42.24 27.392 66.2016 27.392s47.9744-9.1136 66.2016-27.392l268.7488-268.7488 0.0512-0.0512 53.1968-53.248c98.4064-98.3552 98.4064-258.4064 0.0512-356.7616z m-365.5168 635.392c-12.544 12.544-32.9728 12.544-45.568 0l-322.048-322.048c-74.3936-74.3936-74.3936-195.4816 0-269.8752 37.2224-37.2224 86.0672-55.808 134.912-55.808 48.8448 0 97.7408 18.5856 134.9632 55.808l31.488 31.488-2.4064 2.4064c-6.2464 6.2464-11.3664 13.2096-15.616 20.5312-21.6064 37.5808-16.4864 86.4768 15.616 118.5792 37.8368 37.8368 97.9968 38.7584 136.96 2.048l4.6592-4.352 174.1312 174.1312-247.0912 247.0912z m322.048-322.048l-31.488 31.488-195.1744-195.1744c-1.4848-1.4848-3.072-2.7648-4.7616-3.8912-0.512-0.3584-1.0752-0.5632-1.6384-0.8704a25.344 25.344 0 0 0-3.6864-1.9456c-0.7168-0.3072-1.4848-0.4608-2.2016-0.6656-1.1264-0.3584-2.2528-0.768-3.4304-1.024-0.8192-0.1536-1.6384-0.1536-2.4576-0.256-1.1264-0.1536-2.2016-0.3072-3.328-0.3072h-0.256c-1.024 0-1.9968 0.2048-3.0208 0.256-0.8192 0.1024-1.6384 0.1024-2.4576 0.2048-1.1264 0.2048-2.2528 0.5632-3.3792 0.9216-0.7168 0.2048-1.4848 0.3584-2.2016 0.6144-1.2288 0.4608-2.4064 1.1264-3.584 1.7408-0.5632 0.3072-1.1264 0.512-1.6896 0.8704-1.6896 1.0752-3.2768 2.2528-4.7616 3.6864l-26.3168 24.7808a38.44096 38.44096 0 0 1-10.24 6.8096c-1.7408 0.768-3.4816 1.4336-5.2736 1.9456-10.496 2.9184-21.9648 1.024-31.1808-5.5296-1.6384-1.1776-3.2768-2.5088-4.7616-3.9936-8.704-8.704-12.0832-20.6848-10.2912-32 1.1776-7.424 4.608-14.5408 10.2912-20.224l24.1152-24.1152 0.0512-0.0512 53.1456-53.1456c36.0448-36.0448 83.968-55.9104 134.912-55.9104 50.9952 0 98.8672 19.8656 134.912 55.9104 74.5984 74.3936 74.5984 195.4816 0.1536 269.8752z" fill="#474747" p-id="77735"></path></svg>