<?xml version="1.0" standalone="no"?><!DOCTYPE svg PUBLIC "-//W3C//DTD SVG 1.1//EN" "http://www.w3.org/Graphics/SVG/1.1/DTD/svg11.dtd"><svg t="1647240761158" class="icon" viewBox="0 0 1024 1024" version="1.1" xmlns="http://www.w3.org/2000/svg" p-id="116870" xmlns:xlink="http://www.w3.org/1999/xlink" width="200" height="200"><defs><style type="text/css"></style></defs><path d="M786.4832 898.6112H247.9104c-91.136 0-165.2736-74.1376-165.2736-165.2736V296.7552c0-91.136 74.1376-165.2736 165.2736-165.2736h538.5728c91.136 0 165.2736 74.1376 165.2736 165.2736v436.6336c0 91.0848-74.1376 165.2224-165.2736 165.2224zM247.9104 203.1616c-51.6096 0-93.5936 41.984-93.5936 93.5936v436.6336c0 51.6096 41.984 93.5936 93.5936 93.5936h538.5728c51.6096 0 93.5936-41.984 93.5936-93.5936V296.7552c0-51.6096-41.984-93.5936-93.5936-93.5936H247.9104z" fill="#4D4D4D" p-id="116871"></path><path d="M345.9584 701.2352c-19.8144 0-35.84-16.0256-35.84-35.84V541.184c0-19.8144 16.0256-35.84 35.84-35.84s35.84 16.0256 35.84 35.84v124.2112c0 19.7632-16.0768 35.84-35.84 35.84zM513.3824 701.2352c-19.8144 0-35.84-16.0256-35.84-35.84V371.2512c0-19.8144 16.0256-35.84 35.84-35.84s35.84 16.0256 35.84 35.84v294.144c0 19.7632-16.0256 35.84-35.84 35.84zM684.4928 701.2352c-19.8144 0-35.84-16.0256-35.84-35.84v-184.32c0-19.8144 16.0256-35.84 35.84-35.84s35.84 16.0256 35.84 35.84v184.32c0 19.7632-16.0256 35.84-35.84 35.84z" fill="#1976d2" p-id="116872"></path></svg>