<?xml version="1.0" standalone="no"?><!DOCTYPE svg PUBLIC "-//W3C//DTD SVG 1.1//EN" "http://www.w3.org/Graphics/SVG/1.1/DTD/svg11.dtd"><svg t="1647241191010" class="icon" viewBox="0 0 1024 1024" version="1.1" xmlns="http://www.w3.org/2000/svg" p-id="117010" xmlns:xlink="http://www.w3.org/1999/xlink" width="200" height="200"><defs><style type="text/css"></style></defs><path d="M745.8816 928.6656H174.2336c-47.872 0-86.8352-38.9632-86.8352-86.8352V424.8576c0-47.872 38.9632-86.8352 86.8352-86.8352h158.1568l0.4096-0.1536c27.4944-12.4928 62.8736-40.0896 72.8064-77.056 8.96-38.2976 7.0656-58.624 5.632-73.472-0.3072-3.2256-0.5632-6.0928-0.7168-8.7552-2.3552-37.2736 18.8928-86.016 71.0656-105.0112 56.832-20.736 133.0176 4.608 162.048 82.9952 18.5344 50.0736 20.48 123.9552 1.3312 181.5552h211.712c29.8496 0 57.3952 13.6192 75.4688 37.4272 18.0736 23.7568 23.9104 53.9136 15.9744 82.7392l-110.7456 400.896c-11.3664 40.8576-48.9984 69.4784-91.4944 69.4784zM174.2336 409.7024c-8.3456 0-15.1552 6.8096-15.1552 15.1552v417.024c0 8.3456 6.8096 15.1552 15.1552 15.1552h571.648a23.1936 23.1936 0 0 0 22.3232-16.9984l110.7456-400.9472c2.6624-9.6256-1.28-16.7936-3.8912-20.224-2.6112-3.4304-8.448-9.1648-18.432-9.1648h-272.8448c-14.2336 0-27.0848-8.3968-32.8192-21.4016s-3.2256-28.16 6.3488-38.656l3.1232-3.4304c29.0816-31.5904 33.0752-118.4256 15.872-164.8128-14.0288-37.888-46.6944-49.152-70.2976-40.5504-25.2416 9.216-24.064 32.9728-24.064 33.2288 0.1024 1.9456 0.3584 4.096 0.5632 6.4512 1.6896 17.6128 4.5056 47.104-7.3216 97.1776-0.0512 0.3072-0.1536 0.5632-0.2048 0.8704-16.128 61.4912-68.6592 104.6528-112.4864 124.5184l-7.424 3.3792c-4.6592 2.1504-9.7792 3.2256-14.8992 3.2256H174.2336z" fill="#4D4D4D" p-id="117011"></path><path d="M276.6336 797.7984c-19.8144 0-35.84-16.0256-35.84-35.84V497.5616c0-19.8144 16.0256-35.84 35.84-35.84s35.84 16.0256 35.84 35.84v264.3968c0 19.7632-16.0256 35.84-35.84 35.84z" fill="#1976d2" p-id="117012"></path></svg>