<?xml version="1.0" standalone="no"?>
<!DOCTYPE svg PUBLIC "-//W3C//DTD SVG 1.1//EN" "http://www.w3.org/Graphics/SVG/1.1/DTD/svg11.dtd">
<svg t="1591920204418" class="icon" viewBox="0 0 1024 1024" version="1.1" xmlns="http://www.w3.org/2000/svg" p-id="1281" xmlns:xlink="http://www.w3.org/1999/xlink" width="200" height="200">
	<defs>
		<style type="text/css">
		</style>
	</defs>
	<path d="M605.7 896c-8.9 0-17.7-2.8-25.1-8.1-11.4-8.3-17.9-21.7-17.6-35.8l3.1-102.5-62.7-81.1c-8.6-11.2-11.2-25.9-6.8-39.3 4.4-13.4 15.1-23.8 28.6-27.8l98.4-28.8 57.8-84.7c15.9-23.3 54.5-23.4 70.5 0l57.8 84.7 98.4 28.8c13.5 4 24.2 14.4 28.6 27.8 4.4 13.4 1.8 28.1-6.8 39.3l-62.7 81.1 3.1 102.5c0.3 14.1-6.2 27.5-17.6 35.8-11.5 8.3-26.2 10.5-39.5 5.7L716.6 859 620 893.5c-4.6 1.7-9.5 2.5-14.3 2.5m110.9-125c4.9 0 9.7 0.9 14.4 2.5l52.1 18.6-1.6-55.3c-0.3-9.9 2.9-19.5 8.9-27.3l33.7-43.7-53.1-15.5c-9.4-2.8-17.7-8.7-23.3-16.9l-31.1-45.7-31.1 45.6c-5.6 8.2-13.8 14.1-23.3 16.9l-53.1 15.5 33.7 43.7c6.1 7.8 9.2 17.5 8.9 27.3l-1.6 55.3 52-18.6c4.7-1.6 9.6-2.4 14.5-2.4" fill="#1976d2" p-id="1282">
	</path>
	<path d="M938.7 298.7v42.7c0 23.6-19.1 42.7-42.7 42.7H170.7v-85.3h682.7c0-47.1-38.2-85.3-85.3-85.3H256c-47.1 0-85.3 38.2-85.3 85.3v426.7c0 47.1 38.2 85.3 85.3 85.3h213.3c23.6 0 42.7 19.1 42.7 42.7S492.9 896 469.3 896H256c-94.3 0-170.7-76.4-170.7-170.7V298.7C85.3 204.4 161.7 128 256 128h512c94.3 0 170.7 76.4 170.7 170.7z" fill="#666666" p-id="1283">
	</path>
</svg>
