<?xml version="1.0" standalone="no"?><!DOCTYPE svg PUBLIC "-//W3C//DTD SVG 1.1//EN" "http://www.w3.org/Graphics/SVG/1.1/DTD/svg11.dtd"><svg t="1647241200032" class="icon" viewBox="0 0 1024 1024" version="1.1" xmlns="http://www.w3.org/2000/svg" p-id="117150" xmlns:xlink="http://www.w3.org/1999/xlink" width="200" height="200"><defs><style type="text/css"></style></defs><path d="M329.4208 930.4064c-9.8816 0-19.712-2.5088-28.5696-7.5776-17.92-10.24-29.0304-29.44-28.9792-50.1248l0.2048-86.3232H214.3232c-74.5472 0-135.168-60.6208-135.168-135.168V257.7408c0-74.5472 60.6208-135.168 135.168-135.168h596.1216c74.5472 0 135.168 60.6208 135.168 135.168v393.472c0 74.5472-60.6208 135.168-135.168 135.168h-222.1056l-229.5808 135.9872a57.28256 57.28256 0 0 1-29.3376 8.0384zM214.3232 194.2528c-35.0208 0-63.488 28.4672-63.488 63.488v393.472c0 35.0208 28.4672 63.488 63.488 63.488h71.936c15.4112 0 29.9008 5.9904 40.7552 16.896s16.8448 25.3952 16.7936 40.8064l-0.2048 75.6224 211.5072-125.2864c8.8576-5.2736 18.9952-8.0384 29.3376-8.0384h225.9968c35.0208 0 63.488-28.4672 63.488-63.488V257.7408c0-35.0208-28.4672-63.488-63.488-63.488H214.3232z" fill="#4D4D4D" p-id="117151"></path><path d="M306.3808 449.8944m-43.1616 0a43.1616 43.1616 0 1 0 86.3232 0 43.1616 43.1616 0 1 0-86.3232 0Z" fill="#1976d2" p-id="117152"></path><path d="M507.6992 449.8944m-43.1616 0a43.1616 43.1616 0 1 0 86.3232 0 43.1616 43.1616 0 1 0-86.3232 0Z" fill="#1976d2" p-id="117153"></path><path d="M709.0176 449.8944m-43.1616 0a43.1616 43.1616 0 1 0 86.3232 0 43.1616 43.1616 0 1 0-86.3232 0Z" fill="#1976d2" p-id="117154"></path></svg>