<?xml version="1.0" standalone="no"?>
<!DOCTYPE svg PUBLIC "-//W3C//DTD SVG 1.1//EN" "http://www.w3.org/Graphics/SVG/1.1/DTD/svg11.dtd">
<svg t="1591920196176" class="icon" viewBox="0 0 1024 1024" version="1.1" xmlns="http://www.w3.org/2000/svg" p-id="1149" xmlns:xlink="http://www.w3.org/1999/xlink" width="200" height="200">
	<defs>
		<style type="text/css">
		</style>
	</defs>
	<path d="M495.6 668.7c5.2 2.1 10.8 3.3 16.4 3.3 5.7 0 11.3-1.2 16.4-3.3 5.2-2.2 9.9-5.3 13.8-9.2L693 508.7c16.7-16.7 16.7-43.7 0-60.4-16.7-16.6-43.7-16.6-60.3 0l-78 78V128c0-23.6-19.1-42.7-42.7-42.7s-42.7 19.1-42.7 42.7v398.3l-78-78c-16.7-16.6-43.7-16.6-60.3 0-8.4 8.4-12.5 19.3-12.5 30.2 0 10.9 4.1 21.8 12.5 30.2l150.8 150.8c4 3.9 8.6 7 13.8 9.2" fill="#1976d2" p-id="1150">
	</path>
	<path d="M938.7 640v128c0 94.3-76.4 170.7-170.7 170.7H256c-94.3 0-170.7-76.4-170.7-170.7V640c0-23.6 19.1-42.7 42.7-42.7s42.7 19.1 42.7 42.7v128c0 47.1 38.2 85.3 85.3 85.3h512c47.1 0 85.3-38.2 85.3-85.3V640c0-23.6 19.1-42.7 42.7-42.7s42.7 19.1 42.7 42.7z" fill="#666666" p-id="1151">
	</path>
</svg>
