<?xml version="1.0" standalone="no"?>
<!DOCTYPE svg PUBLIC "-//W3C//DTD SVG 1.1//EN" "http://www.w3.org/Graphics/SVG/1.1/DTD/svg11.dtd">
<svg t="1618322141347" class="icon" viewBox="0 0 1024 1024" version="1.1" xmlns="http://www.w3.org/2000/svg" p-id="3512" xmlns:xlink="http://www.w3.org/1999/xlink" width="200" height="200">
	<defs>
		<style type="text/css">
		</style>
	</defs>
	<path d="M315.06963 459.851852m-49.777778 0a49.777778 49.777778 0 1 0 99.555555 0 49.777778 49.777778 0 1 0-99.555555 0Z" p-id="3513" fill="#808695">
	</path>
	<path d="M512 459.851852m-49.777778 0a49.777778 49.777778 0 1 0 99.555556 0 49.777778 49.777778 0 1 0-99.555556 0Z" p-id="3514" fill="#808695">
	</path>
	<path d="M709.025185 459.851852m-49.777778 0a49.777778 49.777778 0 1 0 99.555556 0 49.777778 49.777778 0 1 0-99.555556 0Z" p-id="3515" fill="#808695">
	</path>
	<path d="M521.481481 879.407407c-6.921481 0-13.368889-3.318519-17.351111-8.912592l-73.102222-102.4c-82.488889-14.506667-157.582222-51.484444-212.385185-104.675556-28.539259-27.685926-50.915556-58.974815-66.37037-92.823703-16.118519-35.365926-24.272593-72.628148-24.272593-110.743704 0-43.140741 10.42963-84.954074 30.90963-124.302222 19.626667-37.641481 47.597037-71.300741 83.247407-100.124445 72.248889-58.595556 168.106667-90.832593 269.842963-90.832592s197.594074 32.237037 269.842963 90.832592c35.555556 28.823704 63.620741 62.482963 83.247407 100.124445C885.57037 374.897778 896 416.711111 896 459.851852c0 36.408889-7.49037 72.154074-22.281481 106.192592-14.222222 32.616296-34.702222 62.957037-61.155556 90.168889-25.884444 26.642963-56.699259 49.588148-91.496296 68.171852-32.805926 17.540741-68.456296 30.72-106.002963 39.253334l-76.325926 106.856296c-3.887407 5.594074-10.334815 8.912593-17.256297 8.912592z m-9.481481-692.148148c-188.207407 0-341.333333 122.311111-341.333333 272.592593 0 130.180741 115.958519 242.725926 275.816296 267.567407 5.688889 0.853333 10.714074 3.982222 14.032593 8.722963l60.871111 85.238519 63.715555-89.220741c3.128889-4.361481 7.774815-7.395556 12.98963-8.438519C748.468148 692.337778 853.333333 583.86963 853.333333 459.851852c0-150.281481-153.125926-272.592593-341.333333-272.592593z" p-id="3516" fill="#808695">
	</path>
</svg>
