<?xml version="1.0" standalone="no"?>
<!DOCTYPE svg PUBLIC "-//W3C//DTD SVG 1.1//EN" "http://www.w3.org/Graphics/SVG/1.1/DTD/svg11.dtd">
<svg t="1618322107551" class="icon" viewBox="0 0 1024 1024" version="1.1" xmlns="http://www.w3.org/2000/svg" p-id="3224" xmlns:xlink="http://www.w3.org/1999/xlink" width="200" height="200">
	<defs>
		<style type="text/css">
		</style>
	</defs>
	<path d="M512.948148 938.666667c-57.552593 0-113.493333-11.282963-166.115555-33.564445-50.820741-21.522963-96.426667-52.242963-135.585186-91.401481-39.158519-39.158519-69.973333-84.764444-91.401481-135.585185C97.564444 625.493333 86.281481 569.552593 86.281481 512s11.282963-113.493333 33.564445-166.115556c21.522963-50.820741 52.242963-96.426667 91.401481-135.585185 39.158519-39.158519 84.764444-69.973333 135.585186-91.401481C399.454815 96.616296 455.395556 85.333333 512.948148 85.333333s113.493333 11.282963 166.115556 33.564445c50.820741 21.522963 96.426667 52.242963 135.585185 91.401481 39.158519 39.158519 69.973333 84.764444 91.401481 135.585185C928.331852 398.506667 939.614815 454.447407 939.614815 512c0 84.954074-24.841481 166.968889-71.964445 237.226667-6.542222 9.765926-19.816296 12.420741-29.582222 5.878518-9.765926-6.542222-12.420741-19.816296-5.878518-29.582222C874.571852 662.281481 896.948148 588.420741 896.948148 512c0-211.721481-172.278519-384-384-384S128.948148 300.278519 128.948148 512s172.278519 384 384 384c70.068148 0 138.524444-19.057778 198.162963-54.992593 10.05037-6.068148 23.22963-2.844444 29.297778 7.205926s2.844444 23.22963-7.205926 29.297778C666.927407 917.522963 590.696296 938.666667 512.948148 938.666667z" p-id="3225" fill="#808695">
	</path>
	<path d="M312.888889 578.37037c-36.598519 0-66.37037-29.771852-66.37037-66.37037s29.771852-66.37037 66.37037-66.37037 66.37037 29.771852 66.37037 66.37037-29.771852 66.37037-66.37037 66.37037z m0-90.074074c-13.084444 0-23.703704 10.619259-23.703704 23.703704s10.619259 23.703704 23.703704 23.703704 23.703704-10.619259 23.703704-23.703704-10.619259-23.703704-23.703704-23.703704zM512.948148 578.37037c-36.598519 0-66.37037-29.771852-66.37037-66.37037s29.771852-66.37037 66.37037-66.37037 66.37037 29.771852 66.370371 66.37037-29.771852 66.37037-66.370371 66.37037z m0-90.074074c-13.084444 0-23.703704 10.619259-23.703704 23.703704s10.619259 23.703704 23.703704 23.703704 23.703704-10.619259 23.703704-23.703704-10.619259-23.703704-23.703704-23.703704zM713.007407 578.37037c-36.598519 0-66.37037-29.771852-66.37037-66.37037s29.771852-66.37037 66.37037-66.37037 66.37037 29.771852 66.370371 66.37037-29.771852 66.37037-66.370371 66.37037z m0-90.074074c-13.084444 0-23.703704 10.619259-23.703703 23.703704s10.619259 23.703704 23.703703 23.703704 23.703704-10.619259 23.703704-23.703704-10.619259-23.703704-23.703704-23.703704z" p-id="3226" fill="#808695">
	</path>
</svg>
