<?xml version="1.0" standalone="no"?>
<!DOCTYPE svg PUBLIC "-//W3C//DTD SVG 1.1//EN" "http://www.w3.org/Graphics/SVG/1.1/DTD/svg11.dtd">
<svg t="1609992090346" class="icon" viewBox="0 0 1024 1024" version="1.1" xmlns="http://www.w3.org/2000/svg" p-id="2576" xmlns:xlink="http://www.w3.org/1999/xlink" width="200" height="200">
	<defs>
		<style type="text/css">
		</style>
	</defs>
	<path d="M512 1024C229.701818 1024 0 794.321455 0 512S229.701818 0 512 0c21.573818 0 39.144727 17.547636 39.144727 39.144727 0 21.597091-17.547636 39.168-39.144727 39.168C272.872727 78.289455 78.289455 272.849455 78.289455 512S272.872727 945.687273 512 945.687273 945.710545 751.150545 945.710545 512A39.168 39.168 0 0 1 1024 512c0 282.321455-229.678545 512-512 512z" fill="#808695" p-id="2577">
	</path>
	<path d="M839.749818 490.658909c-56.529455 56.273455-102.795636 8.610909-64.698182-32.930909l127.255273-198.283636c-199.307636-3.723636-317.114182 70.586182-367.36 137.774545-36.584727 49.082182-58.554182 163.584-65.954909 193.908364-6.213818 25.460364-26.763636 42.402909-52.200727 38.586182-27.019636-6.586182-41.774545-47.988364-35.188364-74.91491 1.28-5.236364 28.183273-128.162909 84.48-203.496727 49.454545-66.280727 147.246545-151.063273 372.619636-162.583273l-148.712727-91.99709c-23.086545-15.476364-37.12-40.936727-12.474182-71.540364 15.569455-22.877091 45.149091-5.213091 68.119273 10.216727l247.761455 156.439273a50.199273 50.199273 0 0 1 13.544727 69.678545l-167.191273 229.143273z m61.626182-231.051636c-2.141091 0.395636-6.795636 1.28 0 0z m0.930909-0.186182l-0.930909 0.186182a10.961455 10.961455 0 0 0 0.930909-0.186182zM512 71.377455" fill="#808695" p-id="2578">
	</path>
</svg>
