<?xml version="1.0" standalone="no"?>
<!DOCTYPE svg PUBLIC "-//W3C//DTD SVG 1.1//EN" "http://www.w3.org/Graphics/SVG/1.1/DTD/svg11.dtd">
<svg t="1609991919526" class="icon" viewBox="0 0 1024 1024" version="1.1" xmlns="http://www.w3.org/2000/svg" p-id="2302" xmlns:xlink="http://www.w3.org/1999/xlink" width="200" height="200">
	<defs>
		<style type="text/css">
		</style>
	</defs>
	<path d="M787.456 1004.055273c-11.077818 0-23.994182-3.700364-35.072-9.216L512.372364 874.821818l-241.873455 120.017455c-23.994182 12.916364-55.389091 11.077818-77.544727-5.538909s-35.072-46.149818-29.533091-73.844364l49.850182-258.490182-190.161455-177.245091C2.792727 459.403636-4.584727 428.032 2.792727 402.176c9.239273-27.694545 31.394909-48.011636 60.928-51.712l264.005818-48.011636L445.905455 62.440727c12.939636-25.832727 38.772364-42.449455 66.466909-42.449454s55.365818 16.616727 66.466909 42.449454l118.155636 240.011637 264.005818 46.149818a71.214545 71.214545 0 0 1 59.089455 51.688727 75.240727 75.240727 0 0 1-18.455273 77.544727l-190.161454 179.083637 48.011636 258.490182c5.538909 29.533091-7.377455 57.227636-29.556364 73.844363a65.838545 65.838545 0 0 1-42.472727 14.801455z m0 0" fill="#ffc24b" p-id="2303">
	</path>
</svg>
