<?xml version="1.0" standalone="no"?>
<!DOCTYPE svg PUBLIC "-//W3C//DTD SVG 1.1//EN" "http://www.w3.org/Graphics/SVG/1.1/DTD/svg11.dtd">
<svg t="1609992114015" class="icon" viewBox="0 0 1028 1024" version="1.1" xmlns="http://www.w3.org/2000/svg" p-id="2714" xmlns:xlink="http://www.w3.org/1999/xlink" width="200.78125" height="200">
	<defs>
		<style type="text/css">
		</style>
	</defs>
	<path d="M475.416536 854.805382c5.827538 5.136526 12.737662 8.844959 20.200596 10.894962 4.883154 2.21124 10.180916 3.247758 15.54778 3.086522a34.780958 34.780958 0 0 0 15.547779-3.086522c7.762373-1.220789 14.879801-5.044391 20.177562-10.894962l380.287162-380.540533a42.888837 42.888837 0 1 0-60.578755-60.670889L550.045876 730.561351V53.254023a38.903999 38.903999 0 1 0-77.692828 0v677.330362L155.454758 413.616993a42.842769 42.842769 0 1 0-60.578754 60.67089l380.540532 380.517499z m501.790177 91.420941H45.169178a38.903999 38.903999 0 1 0 0 77.692829h931.876299a38.927032 38.927032 0 0 0 35.172531-58.805156 38.927032 38.927032 0 0 0-35.172531-18.887673h0.161236z m0 0" fill="#808695" p-id="2715">
	</path>
</svg>
