<?xml version="1.0" standalone="no"?>
<!DOCTYPE svg PUBLIC "-//W3C//DTD SVG 1.1//EN" "http://www.w3.org/Graphics/SVG/1.1/DTD/svg11.dtd">
<svg t="1618322112309" class="icon" viewBox="0 0 1024 1024" version="1.1" xmlns="http://www.w3.org/2000/svg" p-id="3368" xmlns:xlink="http://www.w3.org/1999/xlink" width="200" height="200">
	<defs>
		<style type="text/css">
		</style>
	</defs>
	<path d="M340.385185 853.333333H212.385185c-23.514074 0-42.666667-19.152593-42.666666-42.666666V423.822222c0-23.514074 19.152593-42.666667 42.666666-42.666666h128v472.177777z m-128-42.666666c0.094815 0 0.094815 0 0 0h85.333334V423.822222h-85.333334v386.844445z" p-id="3369" fill="#808695">
	</path>
	<path d="M700.302222 853.333333H319.051852c-11.757037 0-21.333333-9.576296-21.333333-21.333333v-429.511111c0-11.757037 9.576296-21.333333 21.333333-21.333333 53.001481 0 84.764444-19.531852 102.115555-35.934815 20.005926-18.962963 29.013333-41.14963 29.013334-54.708148v-34.038519c0-12.136296 4.171852-32.805926 15.834074-51.2 14.222222-22.376296 35.460741-34.702222 59.638518-34.702222 26.548148 0 49.777778 11.472593 65.611852 32.237037 12.136296 16.023704 19.342222 37.451852 19.342222 57.268148v30.340741c0 31.762963-6.731852 63.715556-19.057777 89.979259-0.094815 0.284444-0.284444 0.568889-0.37926 0.853333l197.49926 0.663704c19.911111 0.094815 38.305185 9.102222 50.441481 24.841482 12.136296 15.739259 16.308148 35.84 11.377778 55.087407l-88.082963 343.419259c-7.395556 28.254815-32.900741 48.071111-62.103704 48.071111zM340.385185 810.666667h359.917037c9.765926 0 18.204444-6.637037 20.66963-16.023704l88.082963-343.419259c1.611852-6.447407 0.284444-13.084444-3.792593-18.394074-4.077037-5.214815-10.145185-8.248889-16.782222-8.248889l-241.967407-0.758519c-11.757037 0-21.238519-9.576296-21.238519-21.333333 0-9.671111 6.447407-17.73037 15.17037-20.385185 7.205926-7.111111 27.401481-40.580741 27.401482-91.496297v-30.34074c0-15.265185-10.334815-46.838519-42.287407-46.838519-3.508148 0-14.127407 0-23.608889 14.980741-6.731852 10.619259-9.197037 22.755556-9.197037 28.254815v34.038518c0 28.16-16.213333 61.060741-42.382223 85.712593-20.385185 19.152593-55.371852 41.718519-109.985185 46.459259v387.792593z m206.222222-429.511111z" p-id="3370" fill="#808695">
	</path>
</svg>
