<?xml version="1.0" standalone="no"?>
<!DOCTYPE svg PUBLIC "-//W3C//DTD SVG 1.1//EN" "http://www.w3.org/Graphics/SVG/1.1/DTD/svg11.dtd">
<svg t="1609991900479" class="icon" viewBox="0 0 1024 1024" version="1.1" xmlns="http://www.w3.org/2000/svg" p-id="2025" xmlns:xlink="http://www.w3.org/1999/xlink" width="200" height="200">
	<defs>
		<style type="text/css">
		</style>
	</defs>
	<path d="M512 0C229.259636 0 0 229.236364 0 512s229.236364 512 512 512c109.381818 0 210.501818-34.536727 293.701818-92.974545l167.121455 41.774545-41.774546-167.121455A509.137455 509.137455 0 0 0 1024 512C1024 229.236364 794.786909 0 512 0m0 947.2C271.662545 947.2 76.8 752.337455 76.8 512S271.662545 76.8 512 76.8c240.384 0 435.223273 194.862545 435.223273 435.2a433.338182 433.338182 0 0 1-103.424 281.297455l25.041454 77.91709-76.8-26.274909A433.221818 433.221818 0 0 1 512 947.2" fill="#808695" p-id="2026">
	</path>
	<path d="M308.363636 525.568m-60.113454 0a60.113455 60.113455 0 1 0 120.226909 0 60.113455 60.113455 0 1 0-120.226909 0Z" fill="#808695" p-id="2027">
	</path>
	<path d="M517.818182 525.568m-60.113455 0a60.113455 60.113455 0 1 0 120.226909 0 60.113455 60.113455 0 1 0-120.226909 0Z" fill="#808695" p-id="2028">
	</path>
	<path d="M727.272727 525.568m-60.113454 0a60.113455 60.113455 0 1 0 120.226909 0 60.113455 60.113455 0 1 0-120.226909 0Z" fill="#808695" p-id="2029">
	</path>
</svg>
