<?xml version="1.0" standalone="no"?>
<!DOCTYPE svg PUBLIC "-//W3C//DTD SVG 1.1//EN" "http://www.w3.org/Graphics/SVG/1.1/DTD/svg11.dtd">
<svg t="1609991914979" class="icon" viewBox="0 0 1024 1024" version="1.1" xmlns="http://www.w3.org/2000/svg" p-id="2165" xmlns:xlink="http://www.w3.org/1999/xlink" width="200" height="200">
	<defs>
		<style type="text/css">
		</style>
	</defs>
	<path d="M768.233193 1005.381818c-15.406545 0-32.674909-4.375273-48.593455-12.357818l-207.336727-103.68-209.035636 103.726545c-31.511273 17.012364-78.731636 14.475636-109.428364-8.564363-32.209455-24.157091-48.709818-66.048-41.099636-104.261818l42.58909-220.765091-162.420363-151.389091C4.30592 479.511273-6.678807 437.434182 4.026647 400.011636c13.637818-41.053091 46.638545-68.724364 86.597818-73.728l225.908364-41.122909 101.957818-207.104C436.573556 41.867636 473.391011 18.618182 512.349556 18.618182c40.936727 0 78.987636 24.576 94.650182 61.137454l101.096727 205.265455 227.723637 39.773091c38.493091 5.12 72.261818 34.466909 83.013818 73.006545a105.658182 105.658182 0 0 1-26.135273 107.659637l-163.467636 153.949091 41.099636 221.27709c7.400727 39.424-8.378182 79.220364-41.169454 103.796364-15.616 13.079273-37.771636 20.898909-60.928 20.898909z m-255.813818-195.84l239.150545 119.575273c6.679273 3.328 13.172364 4.817455 16.663273 4.817454 6.493091 0 12.404364-1.931636 16.64-5.46909 12.474182-9.402182 17.617455-21.922909 15.243636-34.676364l-48.221091-259.653818 191.069091-179.921455c8.797091-8.820364 12.008727-22.132364 7.773091-34.839273l-0.628364-2.094545a30.673455 30.673455 0 0 0-25.157818-21.876364L660.038284 349.137455 542.115375 109.591273a33.256727 33.256727 0 0 0-29.789091-19.549091c-12.148364 0-23.877818 7.749818-29.882182 19.758545l-117.76 239.197091-263.261091 47.872c-20.084364 2.56-27.042909 17.803636-29.160727 24.250182-3.048727 10.798545 1.070545 26.368 10.24 35.560727l190.464 177.477818-50.129455 259.84c-2.350545 11.659636 3.490909 25.6 13.847273 33.349819 9.006545 6.749091 23.691636 7.703273 33.745454 2.304l241.989819-120.110546z" fill="#808695" p-id="2166">
	</path>
</svg>
