<svg xmlns:xlink="http://www.w3.org/1999/xlink" xmlns="http://www.w3.org/2000/svg" version="1.1" viewBox="0 0 600 600" height="600px" width="600px">
    <title>无网络</title>
    <defs>
        <linearGradient id="linearGradient-1" y2="44.0501254%" x2="50%" y1="-29.88559%" x1="50%">
            <stop offset="0%" stop-color="#CFDFFA"></stop>
            <stop offset="100%" stop-opacity="0" stop-color="#EAF0FC"></stop>
        </linearGradient>
        <linearGradient id="linearGradient-2" y2="69.8229089%" x2="53.6226986%" y1="33.7484636%" x1="50%">
            <stop offset="0%" stop-color="#CFDFFA"></stop>
            <stop offset="100%" stop-opacity="0" stop-color="#EAF0FC"></stop>
        </linearGradient>
        <linearGradient id="linearGradient-3" y2="66.4977364%" x2="53.6226986%" y1="36.47456%" x1="50%">
            <stop offset="0%" stop-color="#CFDFFA"></stop>
            <stop offset="100%" stop-opacity="0" stop-color="#EAF0FC"></stop>
        </linearGradient>
        <linearGradient id="linearGradient-4" y2="100%" x2="57.28025%" y1="11.4973736%" x1="50%">
            <stop offset="0%" stop-color="#BFD4FA"></stop>
            <stop offset="100%" stop-color="#5792F0"></stop>
        </linearGradient>
        <linearGradient id="linearGradient-5" y2="131.881015%" x2="51.9400923%" y1="11.4973736%" x1="50%">
            <stop offset="0%" stop-color="#BFD4FA"></stop>
            <stop offset="100%" stop-color="#5792F0"></stop>
        </linearGradient>
        <linearGradient id="linearGradient-6" y2="128.49897%" x2="74.2827921%" y1="13.0877007%" x1="50%">
            <stop offset="0%" stop-color="#BFD4FA"></stop>
            <stop offset="100%" stop-color="#5792F0"></stop>
        </linearGradient>
        <linearGradient id="linearGradient-7" y2="131.881015%" x2="54.0733641%" y1="11.4973736%" x1="50%">
            <stop offset="0%" stop-color="#BFD4FA"></stop>
            <stop offset="100%" stop-color="#5792F0"></stop>
        </linearGradient>
        <linearGradient id="linearGradient-8" y2="131.881015%" x2="51.9795749%" y1="11.4973736%" x1="50%">
            <stop offset="0%" stop-color="#BFD4FA"></stop>
            <stop offset="100%" stop-color="#5792F0"></stop>
        </linearGradient>
        <linearGradient id="linearGradient-9" y2="131.881015%" x2="55.3643684%" y1="11.4973736%" x1="50%">
            <stop offset="0%" stop-color="#BFD4FA"></stop>
            <stop offset="100%" stop-color="#5792F0"></stop>
        </linearGradient>
        <linearGradient id="linearGradient-10" y2="53.7022797%" x2="74.2827921%" y1="48.2590898%" x1="50%">
            <stop offset="0%" stop-color="#BFD4FA"></stop>
            <stop offset="100%" stop-color="#5792F0"></stop>
        </linearGradient>
        <linearGradient id="linearGradient-11" y2="157.920763%" x2="-41.8115334%" y1="26.2390594%" x1="74.7096246%">
            <stop offset="0%" stop-color="#BFD4FA"></stop>
            <stop offset="100%" stop-color="#5792F0"></stop>
        </linearGradient>
        <linearGradient id="linearGradient-12" y2="72.5764974%" x2="25.7283138%" y1="36.5926785%" x1="64.3532982%">
            <stop offset="0%" stop-color="#CFDFFA"></stop>
            <stop offset="100%" stop-opacity="0" stop-color="#EAF0FC"></stop>
        </linearGradient>
        <linearGradient id="linearGradient-13" y2="84.118848%" x2="25.7283138%" y1="29.7381164%" x1="64.3532982%">
            <stop offset="0%" stop-color="#CFDFFA"></stop>
            <stop offset="100%" stop-opacity="0" stop-color="#EAF0FC"></stop>
        </linearGradient>
        <linearGradient id="linearGradient-14" y2="85.0238228%" x2="-195.180649%" y1="53.059031%" x1="92.8632495%">
            <stop offset="0%" stop-color="#BFD4FA"></stop>
            <stop offset="100%" stop-color="#5792F0"></stop>
        </linearGradient>
        <linearGradient id="linearGradient-15" y2="157.920763%" x2="14.6290882%" y1="26.2390594%" x1="59.5195224%">
            <stop offset="0%" stop-color="#BFD4FA"></stop>
            <stop offset="100%" stop-color="#5792F0"></stop>
        </linearGradient>
        <linearGradient id="linearGradient-16" y2="157.920763%" x2="14.8159883%" y1="26.2390594%" x1="59.4692212%">
            <stop offset="0%" stop-color="#BFD4FA"></stop>
            <stop offset="100%" stop-color="#5792F0"></stop>
        </linearGradient>
        <linearGradient id="linearGradient-17" y2="100%" x2="50%" y1="-19.0038784%" x1="50%">
            <stop offset="0%" stop-color="#FFCDA5"></stop>
            <stop offset="100%" stop-color="#FFE8D1"></stop>
        </linearGradient>
        <linearGradient id="linearGradient-18" y2="100%" x2="50%" y1="0%" x1="50%">
            <stop offset="0%" stop-color="#FFF2DF"></stop>
            <stop offset="100%" stop-color="#FEE0BC"></stop>
        </linearGradient>
        <linearGradient id="linearGradient-19" y2="100%" x2="50%" y1="0%" x1="50%">
            <stop offset="0%" stop-color="#FEE127"></stop>
            <stop offset="100%" stop-color="#F9AB21"></stop>
        </linearGradient>
        <linearGradient id="linearGradient-20" y2="55.5555556%" x2="100%" y1="44.4444444%" x1="-7.15035485%">
            <stop offset="0%" stop-color="#BFD4FA"></stop>
            <stop offset="100%" stop-color="#5792F0"></stop>
        </linearGradient>
    </defs>
    <g fill-rule="evenodd" fill="none" stroke-width="1" stroke="none" id="无网络">
        <g transform="translate(60.000000, 149.000000)" id="背景">
            <ellipse ry="125" rx="240" cy="383" cx="240" fill="url(#linearGradient-1)" id="椭圆形"></ellipse>
            <path fill="url(#linearGradient-2)" id="云" d="M407,58.1060606 C407,65.3030303 400.090909,71.0606061 391.363636,71.0606061 L343,71.0606061 C334.272727,70.4848485 327,65.0151515 327,57.530303 C327,52.6363636 330.272727,48.3181818 335,46.0151515 C334.636364,45.1515152 334.272727,44.2878788 334.272727,43.4242424 C334.272727,38.530303 339,34.2121212 345.181818,34.2121212 C347.727273,34.2121212 349.909091,35.0757576 351.727273,36.2272727 C356.090909,29.6060606 364.090909,25 373.545455,25 C386.636364,25 397.181818,33.9242424 397.181818,44.8636364 L397.181818,46.0151515 C403,48.030303 407,52.6363636 407,58.1060606 Z"></path>
            <path fill="url(#linearGradient-3)" id="云" d="M83.1111111,0 C95.4472542,0 105.942032,7.88382384 109.831876,18.887904 L119.5,18.8888889 C129.164983,18.8888889 137,26.7239058 137,36.3888889 L137,40.2777778 C137,49.9427609 129.164983,57.7777778 119.5,57.7777778 L47.8333333,57.7777778 C39.1659376,57.7777778 31.9702379,51.4766979 30.5771453,43.2054489 C28.3142484,39.7253788 27,35.5717245 27,31.1111111 C27,18.8381167 36.9492278,8.88888889 49.2222222,8.88888889 C53.1889854,8.88888889 56.9129959,9.92823654 60.1367857,11.7494638 C65.2822134,4.63160868 73.6557772,0 83.1111111,0 Z"></path>
            <g transform="translate(85.000000, 285.000000)" id="草">
                <ellipse ry="2" rx="6.4" cy="39" cx="13.4" fill="#CCDCF6" id="椭圆形"></ellipse>
                <path fill-rule="nonzero" fill="url(#linearGradient-4)" id="路径-42" d="M6.60484923,38.2167348 C7.47636068,23.663125 11.1274012,15.239576 17.5579706,12.946088 C20.0896918,12.6080766 22.9113387,12.0998521 20.9439014,15.3808976 C18.9764641,18.661943 13.708028,17.3850711 8.43976651,38.2080599 C7.9632649,39.0983464 7.3516258,39.101238 6.60484923,38.2167348 Z"></path>
                <path fill-rule="nonzero" fill="url(#linearGradient-5)" id="路径-41" d="M6.48462669,38.0344018 C4.77372163,24.4410458 3.3734035,15.8924506 2.28367228,12.3886162 C0.649075451,7.13286456 -2.83128613,-2.9819845 4.412198,0.844719829 C11.6556821,4.67142416 12.5120839,24.3005649 9.1638425,36.2464988 C8.12313879,39.2693584 7.23006685,39.865326 6.48462669,38.0344018 Z"></path>
            </g>
            <g fill-rule="nonzero" transform="translate(343.060113, 257.713352)" id="草">
                <path fill="url(#linearGradient-6)" id="路径-43" d="M32.9288445,47.7215111 C31.6697734,41.9903277 27.9928319,37.9840272 21.8980202,35.7026096 C14.9379678,33.4652895 11.1247443,30.8058521 15.4799907,28.8775133 C19.157758,28.5851646 27.0011491,25.7209608 32.9288445,42.8291501 C33.3413817,44.4870209 33.3413817,46.1178079 32.9288445,47.7215111 Z"></path>
                <path fill="url(#linearGradient-7)" id="路径-44" d="M33.2382474,48.6305535 C29.572739,34.9480096 25.4087219,24.9585384 20.7461964,18.6621399 C17.3226294,14.3594206 17.5625238,8.202552 20.7461964,6.81093637 C24.005019,6.44853588 30.0111308,5.88801888 34.5334556,29.4686669 C34.8190764,31.0906371 36.4125824,40.5794978 34.5334556,46.70334 C34.2553159,47.5437876 33.8235798,48.1861921 33.2382474,48.6305535 Z"></path>
                <path fill="url(#linearGradient-8)" id="路径-45" d="M34.0848161,45.5402043 C35.7426747,39.4177315 35.5321916,31.4293155 33.4533666,21.5749561 C30.2735953,12.0220353 24.8460872,0.270898283 34.7387259,0 C38.7522158,0.54577434 43.5986093,4.75271743 41.767387,25.7196343 C40.6514617,34.1802042 38.7106608,39.1782681 36.6738532,45.5402043 C35.9633416,45.9368943 35.1003292,45.9368943 34.0848161,45.5402043 Z"></path>
                <path fill="url(#linearGradient-9)" id="路径-46" d="M36.0213612,47.9180155 C35.3577409,30.6060529 38.5261122,18.181998 45.5264751,10.6458508 C47.416863,8.12757072 54.6087295,5.76902471 54.5815797,13.6631979 C53.8307768,17.0576427 52.2242183,24.3043582 42.9601371,35.3607123 C39.908147,39.3512707 37.9023047,45.182586 37.8827536,46.5498132 C37.8697196,47.4612981 37.2492554,47.9173655 36.0213612,47.9180155 Z"></path>
                <path fill="url(#linearGradient-10)" id="路径-47" d="M0,50.2038554 C6.93219082,48.9118167 10.7551998,47.8149848 11.4690268,46.9133599 C12.5397674,45.5609225 21.9725049,39.7540136 27.8547213,44.6452546 C29.1351862,42.9996411 33.2417619,41.7195619 35.5918671,44.6452546 C36.6670542,40.0262048 43.3745332,37.0680138 46.2916845,37.5472523 C49.5768544,37.2901588 59.27517,37.3971252 60,50.2038554 C57.3539207,50.2654603 37.3539207,50.2654603 0,50.2038554 Z"></path>
            </g>
        </g>
        <g transform="translate(261.460591, 307.389508) scale(-1, 1) translate(-261.460591, -307.389508) translate(141.460591, 201.350910)" id="暂无数据">
            <g transform="translate(26.079712, 49.969648)" id="编组">
                <path fill-rule="nonzero" fill="#FFFFFF" id="路径" d="M62.0432613,58.0503142 L125.123843,58.0503142 C128.946684,58.0503142 130.85777,59.9620706 130.85777,63.7855833 C130.85777,67.6084253 128.946684,69.5201816 125.123843,69.5201816 L62.0432613,69.5201816 C58.2204193,69.5201816 56.308663,67.6084253 56.308663,63.7855833 C56.308663,59.9613998 58.2204193,58.0503142 62.0432613,58.0503142 L62.0432613,58.0503142 Z"></path>
                <path fill-rule="nonzero" fill="#FFFFFF" id="路径" d="M62.0432613,86.7239765 L107.920718,86.7239765 C111.742219,86.7239765 113.655317,88.6357329 113.655317,92.457904 C113.655317,96.2807459 111.742219,98.1931731 107.920718,98.1931731 L62.0432613,98.1931731 C58.2204193,98.1931731 56.308663,96.2807459 56.308663,92.457904 C56.308663,88.6357329 58.2204193,86.7239765 62.0432613,86.7239765 L62.0432613,86.7239765 Z"></path>
                <circle r="81.0537742" cy="81.0537742" cx="111.542323" fill-rule="nonzero" fill="url(#linearGradient-11)" id="椭圆形"></circle>
                <ellipse ry="8.6779205" rx="16.7582883" cy="31.0363546" cx="137.422901" transform="translate(137.422901, 31.036355) rotate(17.067486) translate(-137.422901, -31.036355)" fill="url(#linearGradient-12)" id="椭圆形"></ellipse>
                <circle r="17.789737" cy="67.0534066" cx="95.8524031" opacity="0.200000003" fill-rule="nonzero" fill="#5792F0" id="椭圆形"></circle>
                <ellipse ry="4.07376229" rx="6.3994224" cy="43.9826901" cx="60.0638318" transform="translate(60.063832, 43.982690) rotate(-46.235767) translate(-60.063832, -43.982690)" fill="url(#linearGradient-13)" id="椭圆形"></ellipse>
                <path fill-rule="nonzero" fill="url(#linearGradient-14)" id="路径" d="M191.348424,95.0820412 C191.190788,96.0265159 190.551185,99.1232656 190.36068,100.055666 C204.372848,109.454799 210.783369,117.798164 208.820777,122.381155 C203.321242,136.420025 147.763023,130.528703 98.5556982,114.809466 C49.3483731,99.0902299 0.0417718665,70.8368744 6.15555828,58.0503142 C10.8367292,51.2651733 27.9492615,51.4220935 36.0690788,51.4220935 C36.4534425,50.5426856 37.9048217,47.4128994 38.3187002,46.5502612 C17.229009,45.7956206 2.90760606,49.3810022 0.391466371,57.4787997 C-4.61800609,73.599266 39.0337642,101.492797 97.8910408,119.781263 C156.746976,138.069728 208.520692,139.82586 213.529494,123.705394 C215.905438,116.054344 207.31595,105.750983 191.348424,95.0820412 Z"></path>
                <circle r="9.97960858" cy="100.691375" cx="170.496487" opacity="0.200000003" fill-rule="nonzero" fill="#5792F0" id="椭圆形"></circle>
                <circle r="6.07454435" cy="107.199815" cx="109.317148" opacity="0.200000003" fill-rule="nonzero" fill="#5792F0" id="椭圆形"></circle>
            </g>
            <path transform="translate(28.840217, 38.140697) scale(-1, 1) rotate(45.000000) translate(-28.840217, -38.140697)" fill-rule="nonzero" fill="url(#linearGradient-15)" id="形状" d="M25.7161658,47.5779357 L25.7161658,41.2864433 L28.8402172,41.2864433 C34.1511046,41.2864433 38.2123714,37.1969733 38.2123714,31.8492048 L38.2123714,28.7034586 C38.2123714,23.3556901 34.1511046,19.26622 28.8402172,19.26622 C23.5293299,19.26622 19.4680631,23.3556901 19.4680631,28.7034586 L19.4680631,31.8492048 L13.2199603,31.8492048 L13.2199603,28.7034586 C13.2199603,19.8953692 20.0928734,12.9747277 28.8402172,12.9747277 C37.5875611,12.9747277 44.4604741,19.8953693 44.4604741,28.7034586 L44.4604741,31.8492048 C44.4604741,39.3989956 39.1495868,45.690488 31.9642686,47.263361 L31.9642686,53.869428 L25.7161658,53.869428 L25.7161658,47.5779357 L25.7161658,47.5779357 Z M25.7161658,57.0151742 L31.9642686,57.0151742 L31.9642686,63.3066666 L25.7161658,63.3066666 L25.7161658,57.0151742 Z"></path>
            <path transform="translate(66.034166, 20.522492) scale(-1, 1) rotate(15.000000) translate(-66.034166, -20.522492)" fill-rule="nonzero" fill="url(#linearGradient-16)" id="形状" d="M63.7779071,27.3563546 L63.7779071,22.8004464 L66.0341664,22.8004464 C69.8698073,22.8004464 72.8029444,19.839106 72.8029444,15.966584 L72.8029444,13.6886298 C72.8029444,9.81610783 69.8698073,6.85476744 66.0341664,6.85476744 C62.1985256,6.85476744 59.2653884,9.81610783 59.2653884,13.6886298 L59.2653884,15.966584 L54.7528698,15.966584 L54.7528698,13.6886298 C54.7528698,7.31035825 59.7166403,2.29885919 66.0341664,2.29885919 C72.3516925,2.29885919 77.3154631,7.3103583 77.3154631,13.6886298 L77.3154631,15.966584 C77.3154631,21.4336739 73.4798222,25.9895822 68.2904258,27.1285592 L68.2904258,31.9122629 L63.7779071,31.9122629 L63.7779071,27.3563546 L63.7779071,27.3563546 Z M63.7779071,34.190217 L68.2904258,34.190217 L68.2904258,38.7461253 L63.7779071,38.7461253 L63.7779071,34.190217 Z"></path>
        </g>
        <g transform="translate(303.000000, 383.000000)" id="人物">
            <ellipse ry="14.4" rx="45" cy="88" cx="45" fill="#CCDCF6" id="椭圆形"></ellipse>
            <path fill="#FEE0BC" id="胳膊-path" d="M18.1197768,52.8488799 L13.3564075,61.2545655 C13.3564075,61.2545655 12.9073574,62.013231 13.027677,62.7376177 C13.1544424,63.4956366 13.848429,64.0561735 13.848429,64.0561735 L28.0378511,72.0008116 L28.1363881,65.0450906 L22.0602455,61.4192775 L26.4948842,54.6620017 L18.1197768,52.8488799 Z"></path>
            <path fill="#FEE0BC" id="胳膊-path" d="M76.8959284,52.8488799 L81.6528519,61.2545655 C81.6528519,61.2545655 82.0997535,62.013231 81.9794341,62.7376177 C81.854817,63.4956366 81.1608304,64.0561735 81.1608304,64.0561735 L67.0339464,72.3758307 L66.8922087,65.0450906 L72.9597568,61.4192775 L68.5315639,54.6620017 L76.8959284,52.8488799 Z"></path>
            <g transform="translate(33.142415, 0.000000)" id="脑袋">
                <rect height="8" width="8" y="29" x="9.17041343" fill="url(#linearGradient-17)" id="矩形"></rect>
                <ellipse ry="2.5" rx="1.5" cy="22.5" cx="23.3575851" transform="translate(23.357585, 22.500000) rotate(22.000000) translate(-23.357585, -22.500000)" fill="#FEE0BC" id="椭圆形"></ellipse>
                <ellipse ry="2.5" rx="1.5" cy="22.5" cx="2.3575851" transform="translate(2.357585, 22.500000) scale(-1, 1) rotate(23.000000) translate(-2.357585, -22.500000)" fill="#FEE0BC" id="椭圆形备份-2"></ellipse>
                <circle r="10" cy="21" cx="13.1704134" fill="url(#linearGradient-18)" id="椭圆形"></circle>
                <ellipse ry="3.5" rx="4.5" cy="3.5" cx="12.3575851" fill="#483029" id="椭圆形"></ellipse>
                <path fill="#483029" id="路径-51" d="M1.75173117,22 C8.68576562,18.2373303 12.4228623,15.1162017 12.9630213,12.6366142 C14.1339586,16.0011496 21.3202073,21.2119046 24.1743115,21.1633873 C25.7533068,16.6100682 26.1903476,12.3236594 21.2038402,8.1437477 C16.2173328,3.96383601 10.4675223,3.94034865 4.16936678,8.1437477 C-0.0650948637,11.7030837 -0.870973399,16.3218344 1.75173117,22 Z"></path>
            </g>
            <path fill="url(#linearGradient-19)" id="衣服" d="M42.4911078,32.2013978 C43.1919262,32.6125072 44.506513,33.7739829 46.4348682,35.6858252 C48.8461386,33.3628736 50.0517738,32.2013978 50.0517738,32.2013978 L60.0767524,33.8508814 C60.0767524,33.8508814 62.4249457,34.2448588 63.8570853,35.6649897 C67.8137476,39.58815 74.376647,47.2109434 74.376647,47.2109434 L78.9784173,52.3244504 C77.8323607,53.7071426 76.505001,54.9277786 75.0325067,55.9530983 C72.7230199,57.5391488 69.6092985,58.7579757 69.6092985,58.7579757 L65.9945433,55.2941682 L65.9945433,79.5395273 L29.1782288,79.5395273 L29.1782288,54.9631926 L27.0407708,57.603445 C27.0407708,57.603445 23.8754408,56.9842145 21.12298,55.6240651 C19.2940973,54.676114 17.5840277,53.5133508 16.028777,52.1602572 L26.8773435,38.7999795 C27.5518848,38.1009367 28.2647612,37.4401889 29.012651,36.8208149 C29.6921522,36.2798208 30.4061593,35.7839553 31.1501089,35.3363876 C32.0579061,34.9436649 32.9911427,34.6130133 33.9434266,34.3466975 C37.295838,33.4193618 42.4911078,32.2013978 42.4911078,32.2013978 Z"></path>
            <path fill-rule="nonzero" fill="url(#linearGradient-20)" id="裤子" d="M69.451235,70.3258886 C69.451235,70.3258886 78.452533,66.5755596 81.0660222,74.7537276 C83.370389,81.969745 75.6704313,83.4849424 75.6704313,83.4849424 L75.6704313,83.4849424 L69.848705,84.5593835 L67.3133181,92.6330525 L46.7240288,88.8288799 L26.1178961,92.6330525 L23.5792087,84.5528367 L17.8191488,83.4890547 C17.8191488,83.4890547 10.1278379,81.9738579 12.4300431,74.7617363 C15.0413707,66.5872481 24.0318603,70.3358458 24.0318603,70.3358458 L46.7139569,76.3915417 L69.451235,70.3258886 Z"></path>
            <path fill="#FEE0BC" id="脚" d="M24.1534173,86.589887 L21.6735903,86.7511731 C20.9030433,86.7920783 20.130785,86.7920783 19.360238,86.7511731 C17.7711597,86.6849722 16.2966679,86.6826532 16.2966679,86.6826532 C16.2966679,86.6826532 13.3390363,86.5751286 12.7250251,87.4205635 C11.5445668,89.0473393 12.1607401,92.3540209 12.1607401,92.3540209 C12.1607401,92.3540209 12.5326061,93.722528 13.2352598,94.3396319 C13.8276509,94.8618616 14.9151426,94.469926 14.9151426,94.469926 C14.9151426,94.469926 16.8717629,93.9588701 18.958104,93.5150701 C21.7860149,92.9142002 22.9967413,92.7139101 22.9967413,92.7139101 L25.971669,91.9079014 L24.1534173,86.589887 Z M69.2767572,86.589887 L71.7695564,86.7518056 C72.5444237,86.792954 73.3210132,86.792954 74.095881,86.7518056 C75.6936073,86.6853937 77.1767472,86.6830747 77.1767472,86.6830747 C77.1767472,86.6830747 80.1495127,86.5751286 80.7678479,87.4243581 C81.9547921,89.0583026 81.334295,92.3803747 81.334295,92.3803747 C81.334295,92.3803747 80.9602668,93.7547854 80.2554514,94.3748409 C79.6587362,94.8991791 78.5669205,94.505767 78.5669205,94.505767 C78.5669205,94.505767 76.5994899,93.9921816 74.5001768,93.546484 C71.6571319,92.943084 70.4399195,92.7415293 70.4399195,92.7415293 L67.447696,91.932147 L69.2767572,86.589887 Z"></path>
            <path fill="#483029" id="电脑" d="M29.0766398,42.2301748 L65.0816335,42.2301748 C66.1848238,42.2301748 67.0791367,43.0625804 67.0791367,44.0894046 L67.0791367,70.2301748 L27.0791367,70.2301748 L27.0791367,44.0894046 C27.0791367,43.0625804 27.9734493,42.2301748 29.0766398,42.2301748 Z M27.6297408,70.2301748 L66.5285322,70.2301748 C67.08251,70.2301748 67.594406,70.5772937 67.8713952,71.1407756 C68.1483839,71.704257 68.1483839,72.3984953 67.8713952,72.9619767 C67.594406,73.5254586 67.08251,73.8725775 66.5285322,73.8725775 L27.6297408,73.8725775 C26.7733658,73.8725775 26.0791367,73.0571978 26.0791367,72.0513764 C26.0791367,71.0455545 26.7733658,70.2301748 27.6297408,70.2301748 L27.6297408,70.2301748 Z"></path>
        </g>
    </g>
</svg>