<svg xmlns:xlink="http://www.w3.org/1999/xlink" xmlns="http://www.w3.org/2000/svg" version="1.1" viewBox="0 0 600 600" height="600px" width="600px">
    <title>暂无消息</title>
    <defs>
        <linearGradient id="linearGradient-1" y2="44.0501254%" x2="50%" y1="-29.88559%" x1="50%">
            <stop offset="0%" stop-color="#CFDFFA"></stop>
            <stop offset="100%" stop-opacity="0" stop-color="#EAF0FC"></stop>
        </linearGradient>
        <linearGradient id="linearGradient-2" y2="69.8229089%" x2="53.6226986%" y1="33.7484636%" x1="50%">
            <stop offset="0%" stop-color="#CFDFFA"></stop>
            <stop offset="100%" stop-opacity="0" stop-color="#EAF0FC"></stop>
        </linearGradient>
        <linearGradient id="linearGradient-3" y2="66.4977364%" x2="53.6226986%" y1="36.47456%" x1="50%">
            <stop offset="0%" stop-color="#CFDFFA"></stop>
            <stop offset="100%" stop-opacity="0" stop-color="#EAF0FC"></stop>
        </linearGradient>
        <linearGradient id="linearGradient-4" y2="100%" x2="57.28025%" y1="11.4973736%" x1="50%">
            <stop offset="0%" stop-color="#BFD4FA"></stop>
            <stop offset="100%" stop-color="#5792F0"></stop>
        </linearGradient>
        <linearGradient id="linearGradient-5" y2="131.881015%" x2="51.9400923%" y1="11.4973736%" x1="50%">
            <stop offset="0%" stop-color="#BFD4FA"></stop>
            <stop offset="100%" stop-color="#5792F0"></stop>
        </linearGradient>
        <linearGradient id="linearGradient-6" y2="128.49897%" x2="74.2827921%" y1="13.0877007%" x1="50%">
            <stop offset="0%" stop-color="#BFD4FA"></stop>
            <stop offset="100%" stop-color="#5792F0"></stop>
        </linearGradient>
        <linearGradient id="linearGradient-7" y2="131.881015%" x2="54.0733641%" y1="11.4973736%" x1="50%">
            <stop offset="0%" stop-color="#BFD4FA"></stop>
            <stop offset="100%" stop-color="#5792F0"></stop>
        </linearGradient>
        <linearGradient id="linearGradient-8" y2="131.881015%" x2="51.9795749%" y1="11.4973736%" x1="50%">
            <stop offset="0%" stop-color="#BFD4FA"></stop>
            <stop offset="100%" stop-color="#5792F0"></stop>
        </linearGradient>
        <linearGradient id="linearGradient-9" y2="131.881015%" x2="55.3643684%" y1="11.4973736%" x1="50%">
            <stop offset="0%" stop-color="#BFD4FA"></stop>
            <stop offset="100%" stop-color="#5792F0"></stop>
        </linearGradient>
        <linearGradient id="linearGradient-10" y2="53.7022797%" x2="74.2827921%" y1="48.2590898%" x1="50%">
            <stop offset="0%" stop-color="#BFD4FA"></stop>
            <stop offset="100%" stop-color="#5792F0"></stop>
        </linearGradient>
        <linearGradient id="linearGradient-11" y2="73.3163083%" x2="-25.6360227%" y1="32.7876852%" x1="100%">
            <stop offset="0%" stop-opacity="0" stop-color="#BFD4FA"></stop>
            <stop offset="100%" stop-color="#5792F0"></stop>
        </linearGradient>
        <linearGradient id="linearGradient-12" y2="44.3303751%" x2="38.1376013%" y1="65.8022809%" x1="118.461169%">
            <stop offset="0%" stop-color="#5792F0"></stop>
            <stop offset="100%" stop-color="#BFD4FA"></stop>
        </linearGradient>
        <linearGradient id="linearGradient-13" y2="20.0076843%" x2="49.8509344%" y1="133.594066%" x1="50.8602985%">
            <stop offset="0%" stop-color="#5792F0"></stop>
            <stop offset="100%" stop-color="#BFD4FA"></stop>
        </linearGradient>
        <linearGradient id="linearGradient-14" y2="20.0076843%" x2="49.6186112%" y1="133.594066%" x1="52.2010998%">
            <stop offset="0%" stop-color="#5792F0"></stop>
            <stop offset="100%" stop-color="#BFD4FA"></stop>
        </linearGradient>
        <linearGradient id="linearGradient-15" y2="36.649044%" x2="-9.54962274%" y1="71.6123264%" x1="109.435452%">
            <stop offset="0%" stop-color="#5792F0"></stop>
            <stop offset="100%" stop-color="#BFD4FA"></stop>
        </linearGradient>
        <linearGradient id="linearGradient-16" y2="65.5746601%" x2="-3.7606776%" y1="100%" x1="130.387456%">
            <stop offset="0%" stop-color="#5792F0"></stop>
            <stop offset="100%" stop-color="#BFD4FA"></stop>
        </linearGradient>
        <linearGradient id="linearGradient-17" y2="-18.8350284%" x2="-42.426722%" y1="133.594066%" x1="91.0607156%">
            <stop offset="0%" stop-color="#BFD4FA"></stop>
            <stop offset="100%" stop-color="#5792F0"></stop>
        </linearGradient>
        <linearGradient id="linearGradient-18" y2="18.6902921%" x2="0%" y1="77.0442698%" x1="118.461169%">
            <stop offset="0%" stop-color="#BFD4FA"></stop>
            <stop offset="100%" stop-color="#5792F0"></stop>
        </linearGradient>
        <linearGradient id="linearGradient-19" y2="2.16114432%" x2="-39.4007167%" y1="73.1310358%" x1="118.461169%">
            <stop offset="0%" stop-color="#BFD4FA"></stop>
            <stop offset="100%" stop-color="#5792F0"></stop>
        </linearGradient>
        <linearGradient id="linearGradient-20" y2="50%" x2="50%" y1="50%" x1="341.247967%">
            <stop offset="0%" stop-opacity="0" stop-color="#EAF0FC"></stop>
            <stop offset="100%" stop-color="#CFDFFA"></stop>
        </linearGradient>
        <linearGradient id="linearGradient-21" y2="50%" x2="50%" y1="50%" x1="341.247967%">
            <stop offset="0%" stop-opacity="0" stop-color="#EAF0FC"></stop>
            <stop offset="100%" stop-color="#CFDFFA"></stop>
        </linearGradient>
        <linearGradient id="linearGradient-22" y2="50%" x2="50%" y1="50%" x1="341.247967%">
            <stop offset="0%" stop-opacity="0" stop-color="#EAF0FC"></stop>
            <stop offset="100%" stop-color="#CFDFFA"></stop>
        </linearGradient>
        <linearGradient id="linearGradient-23" y2="20.0076843%" x2="41.7528904%" y1="133.594066%" x1="97.5963402%">
            <stop offset="0%" stop-color="#5792F0"></stop>
            <stop offset="100%" stop-color="#BFD4FA"></stop>
        </linearGradient>
        <linearGradient id="linearGradient-24" y2="138.508883%" x2="-16.1947273%" y1="56.9973705%" x1="87.3927846%">
            <stop offset="0%" stop-color="#5792F0"></stop>
            <stop offset="0%" stop-color="#5792F0"></stop>
            <stop offset="100%" stop-opacity="0.5" stop-color="#BFD4FA"></stop>
        </linearGradient>
        <linearGradient id="linearGradient-25" y2="104.749082%" x2="-28.5768657%" y1="36.9149323%" x1="100%">
            <stop offset="0%" stop-color="#5792F0"></stop>
            <stop offset="100%" stop-opacity="0.5" stop-color="#BFD4FA"></stop>
        </linearGradient>
        <linearGradient id="linearGradient-26" y2="138.508883%" x2="26.0445044%" y1="56.9973705%" x1="63.5322362%">
            <stop offset="0%" stop-color="#5792F0"></stop>
            <stop offset="0%" stop-color="#5792F0"></stop>
            <stop offset="100%" stop-opacity="0.5" stop-color="#BFD4FA"></stop>
        </linearGradient>
        <linearGradient id="linearGradient-27" y2="40.3166796%" x2="38.1376013%" y1="76.9891839%" x1="118.461169%">
            <stop offset="0%" stop-color="#5792F0"></stop>
            <stop offset="100%" stop-color="#BFD4FA"></stop>
        </linearGradient>
        <linearGradient id="linearGradient-28" y2="69.3369968%" x2="-26.6101973%" y1="51.528752%" x1="93.2763865%">
            <stop offset="0%" stop-color="#5792F0"></stop>
            <stop offset="0%" stop-color="#5792F0"></stop>
            <stop offset="100%" stop-opacity="0.5" stop-color="#BFD4FA"></stop>
        </linearGradient>
        <linearGradient id="linearGradient-29" y2="100%" x2="50%" y1="12.9243097%" x1="50%">
            <stop offset="0%" stop-color="#FFCDA5"></stop>
            <stop offset="100%" stop-color="#FFE8D1"></stop>
        </linearGradient>
        <linearGradient id="linearGradient-30" y2="100%" x2="88.72%" y1="0%" x1="42.3145579%">
            <stop offset="0%" stop-color="#FFF2DF"></stop>
            <stop offset="100%" stop-color="#FEE0BC"></stop>
        </linearGradient>
        <linearGradient id="linearGradient-31" y2="73.6326896%" x2="100%" y1="11.7098971%" x1="14.3474826%">
            <stop offset="0%" stop-color="#BFD4FA"></stop>
            <stop offset="100%" stop-color="#5792F0"></stop>
        </linearGradient>
        <linearGradient id="linearGradient-32" y2="74.580348%" x2="10.2765284%" y1="42.0503368%" x1="172.425527%">
            <stop offset="0%" stop-color="#BFD4FA"></stop>
            <stop offset="100%" stop-color="#5792F0"></stop>
        </linearGradient>
        <linearGradient id="linearGradient-33" y2="50%" x2="-6.29144848%" y1="52.4797325%" x1="160.3088%">
            <stop offset="0%" stop-color="#BFD4FA"></stop>
            <stop offset="100%" stop-color="#5792F0"></stop>
        </linearGradient>
        <linearGradient id="linearGradient-34" y2="100%" x2="50%" y1="0%" x1="50%">
            <stop offset="0%" stop-color="#FEE127"></stop>
            <stop offset="100%" stop-color="#F9AB21"></stop>
        </linearGradient>
        <linearGradient id="linearGradient-35" y2="73.6421529%" x2="95.466239%" y1="32.4542466%" x1="8.33922697%">
            <stop offset="0%" stop-color="#FEE127"></stop>
            <stop offset="100%" stop-color="#F9AB21"></stop>
        </linearGradient>
    </defs>
    <g fill-rule="evenodd" fill="none" stroke-width="1" stroke="none" id="暂无消息">
        <g transform="translate(71.000000, 149.000000)" id="背景">
            <ellipse ry="125" rx="240" cy="383" cx="240" fill="url(#linearGradient-1)" id="椭圆形"></ellipse>
            <path fill="url(#linearGradient-2)" id="云" d="M407,58.1060606 C407,65.3030303 400.090909,71.0606061 391.363636,71.0606061 L343,71.0606061 C334.272727,70.4848485 327,65.0151515 327,57.530303 C327,52.6363636 330.272727,48.3181818 335,46.0151515 C334.636364,45.1515152 334.272727,44.2878788 334.272727,43.4242424 C334.272727,38.530303 339,34.2121212 345.181818,34.2121212 C347.727273,34.2121212 349.909091,35.0757576 351.727273,36.2272727 C356.090909,29.6060606 364.090909,25 373.545455,25 C386.636364,25 397.181818,33.9242424 397.181818,44.8636364 L397.181818,46.0151515 C403,48.030303 407,52.6363636 407,58.1060606 Z"></path>
            <path fill="url(#linearGradient-3)" id="云" d="M83.1111111,0 C95.4472542,0 105.942032,7.88382384 109.831876,18.887904 L119.5,18.8888889 C129.164983,18.8888889 137,26.7239058 137,36.3888889 L137,40.2777778 C137,49.9427609 129.164983,57.7777778 119.5,57.7777778 L47.8333333,57.7777778 C39.1659376,57.7777778 31.9702379,51.4766979 30.5771453,43.2054489 C28.3142484,39.7253788 27,35.5717245 27,31.1111111 C27,18.8381167 36.9492278,8.88888889 49.2222222,8.88888889 C53.1889854,8.88888889 56.9129959,9.92823654 60.1367857,11.7494638 C65.2822134,4.63160868 73.6557772,0 83.1111111,0 Z"></path>
            <g transform="translate(85.000000, 285.000000)" id="草">
                <ellipse ry="2" rx="6.4" cy="39" cx="13.4" fill="#CCDCF6" id="椭圆形"></ellipse>
                <path fill-rule="nonzero" fill="url(#linearGradient-4)" id="路径-42" d="M6.60484923,38.2167348 C7.47636068,23.663125 11.1274012,15.239576 17.5579706,12.946088 C20.0896918,12.6080766 22.9113387,12.0998521 20.9439014,15.3808976 C18.9764641,18.661943 13.708028,17.3850711 8.43976651,38.2080599 C7.9632649,39.0983464 7.3516258,39.101238 6.60484923,38.2167348 Z"></path>
                <path fill-rule="nonzero" fill="url(#linearGradient-5)" id="路径-41" d="M6.48462669,38.0344018 C4.77372163,24.4410458 3.3734035,15.8924506 2.28367228,12.3886162 C0.649075451,7.13286456 -2.83128613,-2.9819845 4.412198,0.844719829 C11.6556821,4.67142416 12.5120839,24.3005649 9.1638425,36.2464988 C8.12313879,39.2693584 7.23006685,39.865326 6.48462669,38.0344018 Z"></path>
            </g>
            <g fill-rule="nonzero" transform="translate(343.060113, 257.713352)" id="草">
                <path fill="url(#linearGradient-6)" id="路径-43" d="M32.9288445,47.7215111 C31.6697734,41.9903277 27.9928319,37.9840272 21.8980202,35.7026096 C14.9379678,33.4652895 11.1247443,30.8058521 15.4799907,28.8775133 C19.157758,28.5851646 27.0011491,25.7209608 32.9288445,42.8291501 C33.3413817,44.4870209 33.3413817,46.1178079 32.9288445,47.7215111 Z"></path>
                <path fill="url(#linearGradient-7)" id="路径-44" d="M33.2382474,48.6305535 C29.572739,34.9480096 25.4087219,24.9585384 20.7461964,18.6621399 C17.3226294,14.3594206 17.5625238,8.202552 20.7461964,6.81093637 C24.005019,6.44853588 30.0111308,5.88801888 34.5334556,29.4686669 C34.8190764,31.0906371 36.4125824,40.5794978 34.5334556,46.70334 C34.2553159,47.5437876 33.8235798,48.1861921 33.2382474,48.6305535 Z"></path>
                <path fill="url(#linearGradient-8)" id="路径-45" d="M34.0848161,45.5402043 C35.7426747,39.4177315 35.5321916,31.4293155 33.4533666,21.5749561 C30.2735953,12.0220353 24.8460872,0.270898283 34.7387259,0 C38.7522158,0.54577434 43.5986093,4.75271743 41.767387,25.7196343 C40.6514617,34.1802042 38.7106608,39.1782681 36.6738532,45.5402043 C35.9633416,45.9368943 35.1003292,45.9368943 34.0848161,45.5402043 Z"></path>
                <path fill="url(#linearGradient-9)" id="路径-46" d="M36.0213612,47.9180155 C35.3577409,30.6060529 38.5261122,18.181998 45.5264751,10.6458508 C47.416863,8.12757072 54.6087295,5.76902471 54.5815797,13.6631979 C53.8307768,17.0576427 52.2242183,24.3043582 42.9601371,35.3607123 C39.908147,39.3512707 37.9023047,45.182586 37.8827536,46.5498132 C37.8697196,47.4612981 37.2492554,47.9173655 36.0213612,47.9180155 Z"></path>
                <path fill="url(#linearGradient-10)" id="路径-47" d="M0,50.2038554 C6.93219082,48.9118167 10.7551998,47.8149848 11.4690268,46.9133599 C12.5397674,45.5609225 21.9725049,39.7540136 27.8547213,44.6452546 C29.1351862,42.9996411 33.2417619,41.7195619 35.5918671,44.6452546 C36.6670542,40.0262048 43.3745332,37.0680138 46.2916845,37.5472523 C49.5768544,37.2901588 59.27517,37.3971252 60,50.2038554 C57.3539207,50.2654603 37.3539207,50.2654603 0,50.2038554 Z"></path>
            </g>
        </g>
        <g transform="translate(244.000000, 255.258429)">
            <g fill-rule="nonzero" id="编组">
                <polygon points="92.3529476 199.709878 170.574299 151.752794 189.476204 163.423827 87.7462797 221.222205" transform="translate(138.611242, 186.487499) rotate(39.000000) translate(-138.611242, -186.487499)" opacity="0.3" fill="url(#linearGradient-11)" id="路径"></polygon>
                <path fill="url(#linearGradient-12)" id="形状结合" d="M75.192423,156.758167 C89.5216463,156.758167 101.340875,159.561619 103.030117,163.180698 L103.237165,163.181029 L103.237165,173.748612 L103.233681,173.748167 L103.237165,173.82888 C103.237165,177.828176 90.9360448,181.077973 75.6656401,181.143879 L75.192423,181.144899 C59.7037399,181.144899 47.1476815,177.869406 47.1476815,173.82888 C47.1476815,173.802063 47.1482345,173.775281 47.1493378,173.748533 L47.1476815,173.748612 L47.1476815,163.181029 L47.3547293,163.180698 C49.0439711,159.561619 60.8631997,156.758167 75.192423,156.758167 Z"></path>
                <polygon points="76.5785782 162.115284 80.3716523 165.455263 86.1642853 162.115284 86.1642853 79.9443157 76.5785782 79.9443157" fill="url(#linearGradient-13)" id="路径"></polygon>
                <rect height="83.2842947" width="14.9334733" y="82.1709684" x="65.4334962" fill="url(#linearGradient-14)" id="矩形"></rect>
                <path fill="url(#linearGradient-15)" id="路径" d="M0,32.9600731 C0,14.7585908 16.4215197,0.00467784176 36.680281,0.00467784176 L131.241993,0.00467784176 C153.484457,0.00467784176 171.520014,16.2040439 171.520014,36.1924617 L171.520014,88.6357457 L0,88.6357457 L0,32.9600731 Z"></path>
                <path fill="url(#linearGradient-16)" id="路径" d="M135.698359,0 C115.566969,0 99.2520674,16.3022785 99.2520674,36.4076424 L99.2520674,88.62639 L172.14465,88.62639 L172.14465,36.4076424 C172.14465,16.3022785 155.829748,0 135.698359,0 Z"></path>
                <path fill="url(#linearGradient-17)" id="路径" d="M135.698359,5.5666317 C119.079075,5.5666317 105.601954,19.0247824 105.601954,35.6311207 L105.601954,83.2842947 L165.790082,83.2842947 L165.790082,35.6311207 C165.794763,19.0294603 152.317643,5.5666317 135.698359,5.5666317 Z"></path>
                <path fill="url(#linearGradient-18)" id="路径" d="M165.794763,88.6310679 C165.794763,88.6310679 183.008763,99.5725398 192.697492,106.495746 C201.847698,118.976227 198.789825,134.015489 176.789995,135.568532 C159.571312,135.6808 147.377281,131.176039 134.705603,119.682581 L105.606637,88.62639 L105.606637,83.2842947 L165.794763,88.6310679 Z"></path>
                <path fill="url(#linearGradient-19)" id="路径" d="M189.784786,101.612079 C201.576095,111.501036 199.66551,126.685311 183.786109,129.1786 L180.33488,129.604284 C164.080855,130.778422 149.114602,125.562629 135.703041,112.516128 L105.606637,81.4926813 L165.794763,81.4926813 L189.784786,101.612079 Z"></path>
            </g>
            <path fill="url(#linearGradient-20)" id="路径" d="M81.0462818,76.2016852 L65.274109,76.2016852 C64.2417298,76.2016852 63.4055026,74.7465653 63.4055026,72.950121 L63.4055026,72.950121 C63.4055026,71.1536767 64.2417298,69.6985567 65.274109,69.6985567 L81.0462818,69.6985567 C82.0786609,69.6985567 82.9148881,71.1536767 82.9148881,72.950121 L82.9148881,72.950121 C82.9148881,74.7465653 82.0786609,76.2016852 81.0462818,76.2016852 Z"></path>
            <path fill="url(#linearGradient-21)" id="路径" d="M80.2676958,59.130973 L57.9237843,59.130973 C56.4612472,59.130973 55.2765921,57.6758531 55.2765921,55.8794087 L55.2765921,55.8794087 C55.2765921,54.0829644 56.4612472,52.6278445 57.9237843,52.6278445 L80.2676958,52.6278445 C81.730233,52.6278445 82.9148881,54.0829644 82.9148881,55.8794087 L82.9148881,55.8794087 C82.9148881,57.6758531 81.730233,59.130973 80.2676958,59.130973 Z"></path>
            <path fill="url(#linearGradient-22)" id="路径" d="M79.4891099,42.0602607 L50.5734597,42.0602607 C48.6807645,42.0602607 47.1476815,40.6051408 47.1476815,38.8086965 C47.1476815,37.0122522 48.6807645,35.5571322 50.5734597,35.5571322 L79.4891099,35.5571322 C81.381805,35.5571322 82.9148881,37.0122522 82.9148881,38.8086965 C82.9148881,40.6051408 81.381805,42.0602607 79.4891099,42.0602607 Z"></path>
        </g>
        <g fill-rule="nonzero" transform="translate(161.504390, 180.029659)" id="落叶">
            <path fill="url(#linearGradient-23)" id="路径-15" d="M23.109979,111.448719 C11.525188,106.330245 3.82186173,115.616842 0,139.308509 C19.9342426,132.854372 27.6375689,123.567775 23.109979,111.448719 Z"></path>
            <path stroke="url(#linearGradient-24)" id="路径-16" d="M31.1602955,104.281346 C21.4509262,111.771872 15.1253248,118.576955 12.1834912,124.696594"></path>
            <path stroke="url(#linearGradient-25)" id="路径-2" d="M109.938543,0 C94.0346268,25.8416724 80.013175,41.4635568 67.8741873,46.8656532 C57.8026424,52.7917519 46.6844979,49.7388052 44.5215036,42.8269679 C43.0918974,37.2631571 45.631969,27.3478104 55.9097563,32.8491724 C63.9721617,37.8902715 60.0212853,50.212899 55.9097563,55.6808718 C50.2233875,62.7554176 33.165942,73.3533922 24.0598891,73.3533922"></path>
            <path stroke="url(#linearGradient-26)" id="路径-17" d="M346.081119,86.6045486 C346.929333,108.083281 338.643352,122.936325 321.223179,131.163681"></path>
            <path fill="url(#linearGradient-27)" id="路径-18" d="M307.673991,140.968137 C302.75292,134.605996 296.67309,134.605996 289.434501,140.968137 C285.606219,144.556482 283.081307,150.295067 277.408367,150.295067 C295.198851,156.497492 305.287392,153.388515 307.673991,140.968137 Z"></path>
            <path stroke="url(#linearGradient-28)" id="路径-19" d="M315.347145,136.196531 C313.523046,139.749802 305.921057,143.303073 292.541179,146.856344"></path>
        </g>
        <g transform="translate(249.000000, 425.494153) scale(-1, 1) translate(-249.000000, -425.494153) translate(206.000000, 381.988306)" id="人物">
            <ellipse ry="11" rx="43" cy="76.0116936" cx="43" fill="#CCDCF6" id="椭圆形"></ellipse>
            <g transform="translate(42.823804, 18.889013) rotate(33.000000) translate(-42.823804, -18.889013) translate(31.211815, 3.907361)" id="头">
                <rect height="8.09926611" width="8.09926611" y="21.8640382" x="9.97063355" fill="url(#linearGradient-29)" id="矩形"></rect>
                <ellipse ry="9.20371149" rx="8.09926611" cy="15.6055143" cx="15.124712" fill="url(#linearGradient-30)" id="椭圆形"></ellipse>
                <path fill="#483029" id="路径-53" d="M22.4723354,9.73750449 C20.2246021,12.8319816 17.6777733,14.6972692 14.8318489,15.3333673 C13.8463077,15.8132023 11.6934703,14.3281075 11.2399672,16.3277597 C11.1111541,17.6686438 11.8674752,19.5088377 12.9378366,19.1777268 C12.5582627,20.3603363 11.4928861,21.6936427 9.741707,23.1776458 C7.5613061,23.5818615 5.54751486,23.1660683 3.70033327,21.9302661 C-0.0473382637,19.0936824 -2.5413342,9.46785505 4.31118953,4.66846305 C4.49032455,4.56466417 11.6321276,-2.24501217 19.6432325,4.4609846 C21.5790096,5.94620463 22.5220439,7.70504459 22.4723354,9.73750449 Z"></path>
                <circle r="4.09053844" cy="4.09053844" cx="5.008213" fill="#483029" id="椭圆形"></circle>
            </g>
            <path transform="translate(71.161262, 72.361240) scale(-1, 1) translate(-71.161262, -72.361240)" fill-rule="nonzero" fill="url(#linearGradient-31)" id="路径-52" d="M73.2541478,69.3374319 L72.794384,72.3420855 C70.9219746,72.4006422 68.8857561,72.9510296 66.6857285,73.9932477 C65.2700184,74.9015477 65.207009,75.3130994 65.1614335,76.0951859 C65.1310497,76.616577 69.1309925,76.616577 77.1612617,76.0951859 L77.1612617,68.2362507 L73.2541478,69.3374319 Z"></path>
            <path fill-rule="nonzero" fill="url(#linearGradient-32)" id="Fill-1706" d="M37.0548672,57.9000463 C40.5340083,52.777957 49.1499821,40.912156 59.0146543,41.9085475 C68.0395251,42.8201603 70.9081724,70.8574473 70.9081724,70.8574473 L63.5532139,70.9435595 L56.4415258,54.0057865 L40.9207456,73.5565541 L29.6133507,69.207441 L37.0548672,57.9000463 Z"></path>
            <path fill-rule="nonzero" fill="url(#linearGradient-33)" id="Fill-1708" d="M10.6376832,57.5894596 C8.42722062,65.3267021 7.93126912,77.4018366 15.6540492,79.1008883 C19.9054182,80.0361893 25.4321979,79.4409978 39.7162989,79.5260247 C53.8315924,79.6100551 63.0133022,80.2912714 62.9282747,72.5540294 C62.8432477,64.8165375 45.7532431,66.7721672 42.0970657,66.4320577 C38.4411377,66.0919481 21.5209384,65.9218936 21.5209384,65.9218936 L10.6376832,57.5894596 Z"></path>
            <path fill="url(#linearGradient-34)" id="Fill-1709" d="M41.2472871,35.0123416 C41.2472871,35.0123416 40.3100947,34.0990465 38.2558887,32.2479073 C34.3468781,29.3828692 35.8509254,27.0339512 35.8509254,27.0339512 C35.8509254,27.0339512 26.2441635,26.1247052 18.4156065,39.8845649 C13.7005361,48.1720063 8.33494548,61.2094757 8.33494548,61.2094757 C8.33494548,61.2094757 13.8118973,67.8490975 33.5380001,66.0635229 C33.5380001,66.0635229 39.461491,54.7835563 42.5222274,49.3420531 C44.5627184,45.7142183 44.1377383,40.9376479 41.2472871,35.0123416 Z"></path>
            <rect height="1" width="10" y="50.0116936" x="67" transform="translate(72.000000, 50.511694) scale(-1, 1) rotate(20.000000) translate(-72.000000, -50.511694)" fill="#483029" id="矩形"></rect>
            <path transform="translate(69.660525, 52.497401) rotate(-19.000000) translate(-69.660525, -52.497401)" fill="#FEE0BC" id="路径-50备份" d="M65.660394,51.3206357 C66.3959378,51.2138399 67.1669123,51.1124811 67.9733174,51.0165593 C68.2387786,50.8703512 68.5855704,50.760776 69.0136927,50.6878339 C69.8115501,50.717761 70.1486223,50.8746604 70.0249096,51.1585319 C69.9011968,51.4424034 69.6669923,51.6239117 69.3222961,51.7030568 L70.6250474,51.8623847 L71.9700392,51.6857591 C73.3875438,51.5325134 73.913664,51.9547652 73.5483999,52.9525146 C72.9151332,53.9950355 71.2842684,54.8239647 68.9319143,53.9207576 C68.4317019,53.5401997 67.647583,53.3184578 66.5795576,53.255532 L65.660394,51.3206357 Z"></path>
            <path fill="url(#linearGradient-35)" id="路径-3" d="M66.6472381,51.8319841 L45.4914473,59.8207743 L39.889551,37.6603288 C38.2128249,33.7927357 35.2685251,32.1669536 31.0566516,32.7829824 C28.0653276,34.1540583 26.692369,37.0057581 26.9206502,40.099002 C27.1489314,43.1922459 31.5760697,56.1761879 36.0730303,61.952918 C39.4774742,65.8714187 41.5307059,68.5821953 46.4300415,67.3285461 C48.9605722,66.4631382 56.2844938,62.8128498 68.4018061,56.3776812 L66.6472381,51.8319841 Z"></path>
        </g>
    </g>
</svg>