<svg xmlns:xlink="http://www.w3.org/1999/xlink" xmlns="http://www.w3.org/2000/svg" version="1.1" viewBox="0 0 600 600" height="600px" width="600px">
    <title>暂无记录</title>
    <defs>
        <linearGradient id="linearGradient-1" y2="44.0501254%" x2="50%" y1="-29.88559%" x1="50%">
            <stop offset="0%" stop-color="#CFDFFA"></stop>
            <stop offset="100%" stop-opacity="0" stop-color="#EAF0FC"></stop>
        </linearGradient>
        <linearGradient id="linearGradient-2" y2="69.8229089%" x2="53.6226986%" y1="33.7484636%" x1="50%">
            <stop offset="0%" stop-color="#CFDFFA"></stop>
            <stop offset="100%" stop-opacity="0" stop-color="#EAF0FC"></stop>
        </linearGradient>
        <linearGradient id="linearGradient-3" y2="66.4977364%" x2="53.6226986%" y1="36.47456%" x1="50%">
            <stop offset="0%" stop-color="#CFDFFA"></stop>
            <stop offset="100%" stop-opacity="0" stop-color="#EAF0FC"></stop>
        </linearGradient>
        <linearGradient id="linearGradient-4" y2="100%" x2="57.28025%" y1="11.4973736%" x1="50%">
            <stop offset="0%" stop-color="#BFD4FA"></stop>
            <stop offset="100%" stop-color="#5792F0"></stop>
        </linearGradient>
        <linearGradient id="linearGradient-5" y2="131.881015%" x2="51.9400923%" y1="11.4973736%" x1="50%">
            <stop offset="0%" stop-color="#BFD4FA"></stop>
            <stop offset="100%" stop-color="#5792F0"></stop>
        </linearGradient>
        <linearGradient id="linearGradient-6" y2="128.49897%" x2="74.2827921%" y1="13.0877007%" x1="50%">
            <stop offset="0%" stop-color="#BFD4FA"></stop>
            <stop offset="100%" stop-color="#5792F0"></stop>
        </linearGradient>
        <linearGradient id="linearGradient-7" y2="131.881015%" x2="54.0733641%" y1="11.4973736%" x1="50%">
            <stop offset="0%" stop-color="#BFD4FA"></stop>
            <stop offset="100%" stop-color="#5792F0"></stop>
        </linearGradient>
        <linearGradient id="linearGradient-8" y2="131.881015%" x2="51.9795749%" y1="11.4973736%" x1="50%">
            <stop offset="0%" stop-color="#BFD4FA"></stop>
            <stop offset="100%" stop-color="#5792F0"></stop>
        </linearGradient>
        <linearGradient id="linearGradient-9" y2="131.881015%" x2="55.3643684%" y1="11.4973736%" x1="50%">
            <stop offset="0%" stop-color="#BFD4FA"></stop>
            <stop offset="100%" stop-color="#5792F0"></stop>
        </linearGradient>
        <linearGradient id="linearGradient-10" y2="53.7022797%" x2="74.2827921%" y1="48.2590898%" x1="50%">
            <stop offset="0%" stop-color="#BFD4FA"></stop>
            <stop offset="100%" stop-color="#5792F0"></stop>
        </linearGradient>
        <linearGradient id="linearGradient-11" y2="0%" x2="87.9799486%" y1="262.878906%" x1="-41.7190922%">
            <stop offset="0%" stop-color="#5792F0"></stop>
            <stop offset="100%" stop-color="#BFD4FA"></stop>
        </linearGradient>
        <linearGradient id="linearGradient-12" y2="93.8707843%" x2="51.9359856%" y1="-91.6326561%" x1="54.5180881%">
            <stop offset="0%" stop-color="#5792F0"></stop>
            <stop offset="100%" stop-opacity="0" stop-color="#BFD4FA"></stop>
        </linearGradient>
        <linearGradient id="linearGradient-13" y2="-11.5290622%" x2="8.73579937%" y1="58.9183998%" x1="90.669778%">
            <stop offset="0%" stop-color="#5792F0"></stop>
            <stop offset="100%" stop-color="#BFD4FA"></stop>
        </linearGradient>
        <linearGradient id="linearGradient-14" y2="3.81708402%" x2="24.9251872%" y1="250.831247%" x1="174.020218%">
            <stop offset="0%" stop-color="#5792F0"></stop>
            <stop offset="100%" stop-color="#BFD4FA"></stop>
        </linearGradient>
        <linearGradient id="linearGradient-15" y2="43.1298194%" x2="133.934769%" y1="-9.74971215%" x1="272.812234%">
            <stop offset="0%" stop-color="#5792F0"></stop>
            <stop offset="100%" stop-color="#BFD4FA"></stop>
        </linearGradient>
        <linearGradient id="linearGradient-16" y2="49.653899%" x2="-17.9385803%" y1="50.7767422%" x1="219.196164%">
            <stop offset="0%" stop-color="#5792F0"></stop>
            <stop offset="100%" stop-color="#BFD4FA"></stop>
        </linearGradient>
        <linearGradient id="linearGradient-17" y2="48.6155961%" x2="-17.9385803%" y1="53.1069689%" x1="219.196164%">
            <stop offset="0%" stop-color="#5792F0"></stop>
            <stop offset="100%" stop-color="#BFD4FA"></stop>
        </linearGradient>
        <linearGradient id="linearGradient-18" y2="-11.5290622%" x2="-17.9385803%" y1="188.087506%" x1="219.196164%">
            <stop offset="0%" stop-color="#5792F0"></stop>
            <stop offset="100%" stop-color="#BFD4FA"></stop>
        </linearGradient>
        <linearGradient id="linearGradient-19" y2="42.6274349%" x2="-17.9385803%" y1="61.2841142%" x1="116.263747%">
            <stop offset="0%" stop-color="#5792F0"></stop>
            <stop offset="100%" stop-color="#BFD4FA"></stop>
        </linearGradient>
        <linearGradient id="linearGradient-20" y2="49.0386084%" x2="-17.9385803%" y1="51.4714624%" x1="116.263747%">
            <stop offset="0%" stop-color="#5792F0"></stop>
            <stop offset="100%" stop-color="#BFD4FA"></stop>
        </linearGradient>
        <linearGradient id="linearGradient-21" y2="-11.5290622%" x2="-17.9385803%" y1="58.9183998%" x1="116.959906%">
            <stop offset="0%" stop-color="#5792F0"></stop>
            <stop offset="100%" stop-color="#BFD4FA"></stop>
        </linearGradient>
        <linearGradient id="linearGradient-22" y2="100%" x2="50%" y1="-19.0038784%" x1="50%">
            <stop offset="0%" stop-color="#FFCDA5"></stop>
            <stop offset="100%" stop-color="#FFE8D1"></stop>
        </linearGradient>
        <linearGradient id="linearGradient-23" y2="100%" x2="50%" y1="0%" x1="50%">
            <stop offset="0%" stop-color="#FFF2DF"></stop>
            <stop offset="100%" stop-color="#FEE0BC"></stop>
        </linearGradient>
        <linearGradient id="linearGradient-24" y2="73.6326896%" x2="100%" y1="11.7098971%" x1="14.3474826%">
            <stop offset="0%" stop-color="#BFD4FA"></stop>
            <stop offset="100%" stop-color="#5792F0"></stop>
        </linearGradient>
        <linearGradient id="linearGradient-25" y2="100%" x2="59.1092742%" y1="-31.010887%" x1="43.5046289%">
            <stop offset="0%" stop-color="#BFD4FA"></stop>
            <stop offset="100%" stop-color="#5792F0"></stop>
        </linearGradient>
        <linearGradient id="linearGradient-26" y2="100%" x2="50%" y1="0%" x1="50%">
            <stop offset="0%" stop-color="#FEE127"></stop>
            <stop offset="100%" stop-color="#F9AB21"></stop>
        </linearGradient>
    </defs>
    <g fill-rule="evenodd" fill="none" stroke-width="1" stroke="none" id="暂无记录">
        <g transform="translate(60.000000, 149.000000)" id="背景">
            <ellipse ry="125" rx="240" cy="383" cx="240" fill="url(#linearGradient-1)" id="椭圆形"></ellipse>
            <path fill="url(#linearGradient-2)" id="云" d="M407,58.1060606 C407,65.3030303 400.090909,71.0606061 391.363636,71.0606061 L343,71.0606061 C334.272727,70.4848485 327,65.0151515 327,57.530303 C327,52.6363636 330.272727,48.3181818 335,46.0151515 C334.636364,45.1515152 334.272727,44.2878788 334.272727,43.4242424 C334.272727,38.530303 339,34.2121212 345.181818,34.2121212 C347.727273,34.2121212 349.909091,35.0757576 351.727273,36.2272727 C356.090909,29.6060606 364.090909,25 373.545455,25 C386.636364,25 397.181818,33.9242424 397.181818,44.8636364 L397.181818,46.0151515 C403,48.030303 407,52.6363636 407,58.1060606 Z"></path>
            <path fill="url(#linearGradient-3)" id="云" d="M83.1111111,0 C95.4472542,0 105.942032,7.88382384 109.831876,18.887904 L119.5,18.8888889 C129.164983,18.8888889 137,26.7239058 137,36.3888889 L137,40.2777778 C137,49.9427609 129.164983,57.7777778 119.5,57.7777778 L47.8333333,57.7777778 C39.1659376,57.7777778 31.9702379,51.4766979 30.5771453,43.2054489 C28.3142484,39.7253788 27,35.5717245 27,31.1111111 C27,18.8381167 36.9492278,8.88888889 49.2222222,8.88888889 C53.1889854,8.88888889 56.9129959,9.92823654 60.1367857,11.7494638 C65.2822134,4.63160868 73.6557772,0 83.1111111,0 Z"></path>
            <g transform="translate(85.000000, 285.000000)" id="草">
                <ellipse ry="2" rx="6.4" cy="39" cx="13.4" fill="#CCDCF6" id="椭圆形"></ellipse>
                <path fill-rule="nonzero" fill="url(#linearGradient-4)" id="路径-42" d="M6.60484923,38.2167348 C7.47636068,23.663125 11.1274012,15.239576 17.5579706,12.946088 C20.0896918,12.6080766 22.9113387,12.0998521 20.9439014,15.3808976 C18.9764641,18.661943 13.708028,17.3850711 8.43976651,38.2080599 C7.9632649,39.0983464 7.3516258,39.101238 6.60484923,38.2167348 Z"></path>
                <path fill-rule="nonzero" fill="url(#linearGradient-5)" id="路径-41" d="M6.48462669,38.0344018 C4.77372163,24.4410458 3.3734035,15.8924506 2.28367228,12.3886162 C0.649075451,7.13286456 -2.83128613,-2.9819845 4.412198,0.844719829 C11.6556821,4.67142416 12.5120839,24.3005649 9.1638425,36.2464988 C8.12313879,39.2693584 7.23006685,39.865326 6.48462669,38.0344018 Z"></path>
            </g>
            <g fill-rule="nonzero" transform="translate(343.060113, 257.713352)" id="草">
                <path fill="url(#linearGradient-6)" id="路径-43" d="M32.9288445,47.7215111 C31.6697734,41.9903277 27.9928319,37.9840272 21.8980202,35.7026096 C14.9379678,33.4652895 11.1247443,30.8058521 15.4799907,28.8775133 C19.157758,28.5851646 27.0011491,25.7209608 32.9288445,42.8291501 C33.3413817,44.4870209 33.3413817,46.1178079 32.9288445,47.7215111 Z"></path>
                <path fill="url(#linearGradient-7)" id="路径-44" d="M33.2382474,48.6305535 C29.572739,34.9480096 25.4087219,24.9585384 20.7461964,18.6621399 C17.3226294,14.3594206 17.5625238,8.202552 20.7461964,6.81093637 C24.005019,6.44853588 30.0111308,5.88801888 34.5334556,29.4686669 C34.8190764,31.0906371 36.4125824,40.5794978 34.5334556,46.70334 C34.2553159,47.5437876 33.8235798,48.1861921 33.2382474,48.6305535 Z"></path>
                <path fill="url(#linearGradient-8)" id="路径-45" d="M34.0848161,45.5402043 C35.7426747,39.4177315 35.5321916,31.4293155 33.4533666,21.5749561 C30.2735953,12.0220353 24.8460872,0.270898283 34.7387259,0 C38.7522158,0.54577434 43.5986093,4.75271743 41.767387,25.7196343 C40.6514617,34.1802042 38.7106608,39.1782681 36.6738532,45.5402043 C35.9633416,45.9368943 35.1003292,45.9368943 34.0848161,45.5402043 Z"></path>
                <path fill="url(#linearGradient-9)" id="路径-46" d="M36.0213612,47.9180155 C35.3577409,30.6060529 38.5261122,18.181998 45.5264751,10.6458508 C47.416863,8.12757072 54.6087295,5.76902471 54.5815797,13.6631979 C53.8307768,17.0576427 52.2242183,24.3043582 42.9601371,35.3607123 C39.908147,39.3512707 37.9023047,45.182586 37.8827536,46.5498132 C37.8697196,47.4612981 37.2492554,47.9173655 36.0213612,47.9180155 Z"></path>
                <path fill="url(#linearGradient-10)" id="路径-47" d="M0,50.2038554 C6.93219082,48.9118167 10.7551998,47.8149848 11.4690268,46.9133599 C12.5397674,45.5609225 21.9725049,39.7540136 27.8547213,44.6452546 C29.1351862,42.9996411 33.2417619,41.7195619 35.5918671,44.6452546 C36.6670542,40.0262048 43.3745332,37.0680138 46.2916845,37.5472523 C49.5768544,37.2901588 59.27517,37.3971252 60,50.2038554 C57.3539207,50.2654603 37.3539207,50.2654603 0,50.2038554 Z"></path>
            </g>
        </g>
        <path fill-rule="nonzero" stroke-dasharray="4" opacity="0.300000012" stroke="#5792F0" id="路径-13" d="M256,214.39792 C285.482384,209.169108 307.309595,212.489826 321.471216,224.377538 L321.761434,224.621704 L322.337007,225.109247 L322.907311,225.596781 L323.473807,226.085559 L324.037953,226.576832 C324.131863,226.658988 324.225736,226.741301 324.319602,226.823795 L324.882961,227.321159 L325.730895,228.078142 L326.300242,228.591916 L326.874538,229.114444 L327.748456,229.917389 L328.641722,230.747075 L329.559261,231.607727 L330.186872,232.200783 L331.155815,233.122432 L336.764405,238.51999 L337.474192,239.196877 L338.365503,240.03989 L338.999096,240.633268 L339.60828,241.198242 L340.198004,241.739244 L340.582785,242.088782 L341.151069,242.599675 C346.532913,247.406935 351.10409,250.525887 356.475139,252.774207 C362.570539,255.325741 369.655602,256.664045 378.595463,256.820577 L379.036628,256.827322 C393.174636,257.012345 406.685611,260.740808 417.999962,266.875967 C419.690916,267.792879 421.304366,268.752683 422.82278,269.736769 L423.325374,270.065671 L423.820785,270.39622 C424.230593,270.67232 424.632768,270.949974 425.026933,271.228784 L425.496063,271.563886 C425.651142,271.675754 425.804916,271.787782 425.957359,271.899944 L426.410678,272.236805 C426.710199,272.461613 427.004306,272.686855 427.292806,272.912325 L427.721326,273.250677 C428.428437,273.814799 429.099902,274.379714 429.732716,274.942234 L430.107743,275.279432 C430.601529,275.728579 431.070194,276.175783 431.512198,276.619412 L431.838677,276.951438 C433.874418,279.049697 435.299936,281.058063 435.950271,282.801459 L436,282.938541 L435.619221,283.072961 C435.10339,281.609211 434.00267,279.936402 432.424527,278.170407 L432.132355,277.848316 C431.884534,277.579094 431.625903,277.307895 431.356835,277.03512 L431.028967,276.70706 C430.529723,276.213913 429.997148,275.716186 429.433423,275.216229 L429.053015,274.882619 C428.347227,274.270491 427.59563,273.655811 426.802202,273.042873 L426.365299,272.708741 C426.218298,272.597438 426.069938,272.486219 425.920243,272.375109 L425.467177,272.042132 L425.006244,271.709964 C424.773836,271.544108 424.538531,271.378614 424.300411,271.213569 L423.820441,270.884102 L423.333107,270.555987 L422.838553,270.229378 L422.336923,269.904429 L421.828359,269.581296 L421.313005,269.260133 C421.140105,269.153424 420.966097,269.04707 420.791006,268.941095 L420.262504,268.624337 C419.730798,268.308771 419.189554,267.996856 418.639417,267.68929 L418.08634,267.383199 C417.993674,267.332434 417.900768,267.281796 417.807623,267.231289 C406.671506,261.192777 393.39397,257.4965 379.489948,257.23866 L379.031349,257.231407 C369.833725,257.111039 362.565321,255.761597 356.319345,253.147032 C350.901584,250.879158 346.294863,247.735954 340.882218,242.901182 L340.503258,242.561219 L339.926462,242.038327 L339.335233,241.49595 L338.930611,241.121347 L338.3043,240.536625 L337.871698,240.129679 L337.196528,239.490274 L335.328688,237.700198 L331.882558,234.377851 L330.877695,233.415397 L329.910255,232.495173 L329.283655,231.903067 L328.367653,231.043849 L327.475953,230.215607 L326.89256,229.678571 L326.316323,229.152176 C326.220799,229.065261 326.125512,228.978738 326.030433,228.892579 L325.179491,228.12631 L324.61598,227.624337 L324.053795,227.128004 L323.491479,226.63606 L322.927574,226.147255 L322.360623,225.660339 L321.789167,225.174061 L321.211749,224.687171 C307.297168,213.006832 285.879763,209.652826 256.949427,214.642096 L256.070451,214.79584 L256,214.39792 Z"></path>
        <g fill-rule="nonzero" fill="url(#linearGradient-11)" transform="translate(229.000000, 200.652174) scale(-1, 1) rotate(28.000000) translate(-229.000000, -200.652174) translate(214.000000, 185.000000)" id="plane">
            <polygon points="16.8920142 24.8335473 25.7095363 28.6618588 30 0 0 17.684787 7.8717312 21.4117966 26.8919912 4.06557318 11.6214415 23.1734791 11.4187152 31.3043478" id="路径"></polygon>
        </g>
        <g transform="translate(167.000000, 247.000000)">
            <polygon points="95.8772874 117.932732 185.782172 216.86056 203.96318 321.02938 82.1661208 301.825909" transform="translate(143.064650, 219.481056) rotate(-50.000000) translate(-143.064650, -219.481056)" opacity="0.3" fill-rule="nonzero" fill="url(#linearGradient-12)" id="路径"></polygon>
            <path fill-rule="nonzero" fill="url(#linearGradient-13)" id="路径" d="M154.985148,190.833333 L46.6815189,190.833333 C38.3877732,190.833333 31.6666667,184.137691 31.6666667,175.875367 L31.6666667,28.2913 C31.6666667,20.0289761 38.3877732,13.3333333 46.6815189,13.3333333 L154.985148,13.3333333 C163.278894,13.3333333 170,20.0289761 170,28.2913 L170,175.875367 C170,184.137691 163.278894,190.833333 154.985148,190.833333 Z"></path>
            <path fill-rule="nonzero" fill="url(#linearGradient-14)" id="路径" d="M148.372508,195 L44.9608255,195 C36.6969225,195 30,188.277281 30,179.981545 L30,34.1851217 C30,25.8893859 36.6969225,19.1666667 44.9608255,19.1666667 L148.372508,19.1666667 C156.636411,19.1666667 163.333333,25.8893859 163.333333,34.1851217 L163.333333,179.986078 C163.333333,188.277281 156.636411,195 148.372508,195 Z"></path>
            <path fill-rule="nonzero" fill="#FAFAFA" id="路径" d="M147.051167,176.666667 L47.9488332,176.666667 C46.7800988,176.666667 45.8333333,175.722045 45.8333333,174.555957 L45.8333333,32.9440433 C45.8333333,31.7779551 46.7800988,30.8333333 47.9488332,30.8333333 L147.051167,30.8333333 C148.219901,30.8333333 149.166667,31.7779551 149.166667,32.9440433 L149.166667,174.555957 C149.162137,175.722045 148.215371,176.666667 147.051167,176.666667 Z"></path>
            <path fill="#FFFFFF" id="路径" d="M92.27714,175.833259 C83.0466409,175.205955 32.2766365,171.354627 0.839625662,145.901389 C-0.714604248,144.640294 0.0128114948,142.050061 2.0052981,141.868608 C50.7963702,137.450242 44.8550553,50.1262624 45.1984317,33.3827399 C45.2255403,31.9628747 46.1291624,30.8333333 47.5433309,30.8333333 L146.060724,30.8333333 C147.316759,30.8333333 148.333333,31.8540032 148.333333,33.1150976 L143.173651,126.889711 C142.983891,127.40685 142.622442,128.409375 142.265511,128.826715 L104.483845,171.110227 C104.018479,171.654584 92.9910014,175.881865 92.27714,175.833259 Z"></path>
            <path fill-rule="nonzero" fill="url(#linearGradient-15)" id="路径" d="M106.304829,143.297297 C111.966584,143.653153 128.834925,143.783784 143.333333,127.5 C139.897606,144.630631 117.835201,175.621622 89.1666667,175.833333 C105.639269,167.337838 105.009686,151.608108 104.488031,144.554054 C104.42957,143.725225 105.481874,143.243243 106.304829,143.297297 Z"></path>
            <g fill-rule="nonzero" transform="translate(50.690160, 52.500000)" id="编组-2">
                <rect rx="2.5" height="5" width="66.6666667" y="0" x="16.80984" fill="url(#linearGradient-16)" id="矩形"></rect>
                <rect rx="2.5" height="5" width="66.6666667" y="16.6666667" x="15.1431733" fill="url(#linearGradient-16)" id="矩形备份"></rect>
                <rect rx="2.5" height="5" width="33.3333333" y="33.3333333" x="13.4765066" fill="url(#linearGradient-17)" id="矩形备份-2"></rect>
                <rect rx="2.5" height="5" width="5" y="33.3333333" x="51.80984" fill="url(#linearGradient-18)" id="矩形备份-3"></rect>
                <path transform="translate(44.309840, 52.500000) rotate(2.000000) translate(-44.309840, -52.500000)" fill="url(#linearGradient-16)" id="矩形备份-7" d="M13.4765066,50 L75.1431733,50 C76.5238852,50 77.6431733,51.1192881 77.6431733,52.5 C77.6431733,53.8807119 76.5238852,55 75.1431733,55 L13.4765066,55 C12.0957948,55 10.9765066,53.8807119 10.9765066,52.5 C10.9765066,51.1192881 12.0957948,50 13.4765066,50 Z"></path>
                <path transform="translate(39.309840, 69.166667) rotate(4.000000) translate(-39.309840, -69.166667)" fill="url(#linearGradient-16)" id="矩形备份-6" d="M8.47650664,66.6666667 L70.1431733,66.6666667 C71.5238852,66.6666667 72.6431733,67.7859548 72.6431733,69.1666667 C72.6431733,70.5473785 71.5238852,71.6666667 70.1431733,71.6666667 L8.47650664,71.6666667 C7.09579477,71.6666667 5.97650664,70.5473785 5.97650664,69.1666667 C5.97650664,67.7859548 7.09579477,66.6666667 8.47650664,66.6666667 Z"></path>
                <path transform="translate(16.847109, 85.223987) rotate(7.000000) translate(-16.847109, -85.223987)" fill="url(#linearGradient-17)" id="矩形备份-5" d="M2.68044255,82.7239866 L31.0137759,82.7239866 C32.3944878,82.7239866 33.5137759,83.8432747 33.5137759,85.2239866 C33.5137759,86.6046985 32.3944878,87.7239866 31.0137759,87.7239866 L2.68044255,87.7239866 C1.29973068,87.7239866 0.180442553,86.6046985 0.180442553,85.2239866 C0.180442553,83.8432747 1.29973068,82.7239866 2.68044255,82.7239866 Z"></path>
                <path transform="translate(40.833641, 88.169162) rotate(7.000000) translate(-40.833641, -88.169162)" fill="url(#linearGradient-18)" id="矩形备份-4" d="M40.8336412,85.6691624 C42.2143531,85.6691624 43.3336412,86.7884505 43.3336412,88.1691624 C43.3336412,89.5498743 42.2143531,90.6691624 40.8336412,90.6691624 C39.4529293,90.6691624 38.3336412,89.5498743 38.3336412,88.1691624 C38.3336412,86.7884505 39.4529293,85.6691624 40.8336412,85.6691624 Z"></path>
            </g>
            <g fill-rule="nonzero" transform="translate(76.666667, 0.000000)" id="编组">
                <rect height="15" width="43.3333333" y="19.1666667" x="0.833333333" fill="url(#linearGradient-19)" id="矩形"></rect>
                <polygon points="3.33333333 13.3333333 46.6666667 13.3333333 43.3333333 19.1666667 0 19.1666667" fill="url(#linearGradient-20)" id="矩形"></polygon>
                <path fill="url(#linearGradient-21)" id="形状结合" d="M23.3333333,0 C27.475469,0 30.8333333,3.35786438 30.8333333,7.5 C30.8333333,11.6421356 27.475469,15 23.3333333,15 C19.1911977,15 15.8333333,11.6421356 15.8333333,7.5 C15.8333333,3.35786438 19.1911977,0 23.3333333,0 Z M23.3333333,3.33333333 C21.0321469,3.33333333 19.1666667,5.19881354 19.1666667,7.5 C19.1666667,9.80118646 21.0321469,11.6666667 23.3333333,11.6666667 C25.6345198,11.6666667 27.5,9.80118646 27.5,7.5 C27.5,5.19881354 25.6345198,3.33333333 23.3333333,3.33333333 Z"></path>
            </g>
        </g>
        <g transform="translate(327.870393, 362.000000)" id="人物">
            <ellipse ry="8" rx="25" cy="123" cx="32.129607" fill="#CCDCF6" id="椭圆形"></ellipse>
            <rect height="8" width="8" y="29" x="25.4424354" fill="url(#linearGradient-22)" id="矩形"></rect>
            <ellipse ry="2.5" rx="1.5" cy="22.5" cx="39.629607" transform="translate(39.629607, 22.500000) rotate(22.000000) translate(-39.629607, -22.500000)" fill="#FEE0BC" id="椭圆形"></ellipse>
            <ellipse ry="2.5" rx="1.5" cy="22.5" cx="18.629607" transform="translate(18.629607, 22.500000) scale(-1, 1) rotate(23.000000) translate(-18.629607, -22.500000)" fill="#FEE0BC" id="椭圆形备份-2"></ellipse>
            <circle r="10" cy="21" cx="29.4424354" fill="url(#linearGradient-23)" id="椭圆形"></circle>
            <path fill-rule="nonzero" fill="url(#linearGradient-24)" id="路径-52" d="M24.4446309,117.217681 L24.029983,119.927492 C22.3413104,119.980303 20.5049031,120.476682 18.520761,121.416628 C17.2439725,122.235798 17.1871461,122.606965 17.1460428,123.312306 C17.1186406,123.782534 20.7260748,123.782534 27.9683454,123.312306 L27.9683454,116.224557 L24.4446309,117.217681 Z"></path>
            <path transform="translate(41.557117, 119.944767) scale(-1, 1) translate(-41.557117, -119.944767)" fill-rule="nonzero" fill="url(#linearGradient-24)" id="路径-52备份" d="M43.4446309,117.217681 L43.029983,119.927492 C41.3413104,119.980303 39.5049031,120.476682 37.520761,121.416628 C36.2439725,122.235798 36.1871461,122.606965 36.1460428,123.312306 C36.1186406,123.782534 39.7260748,123.782534 46.9683454,123.312306 L46.9683454,116.224557 L43.4446309,117.217681 Z"></path>
            <polygon points="20.5853014 67.7083804 23.4716409 118.168923 29.129607 118.089185 31.5740237 71.5129716 35.3813036 118.069184 40.7008569 117.982737 42.1234713 67.8176404" fill-rule="nonzero" fill="url(#linearGradient-25)" id="路径-49"></polygon>
            <path fill="#FEE0BC" id="路径-50" d="M52.4424354,46.6878268 C53.1871734,46.0957469 53.9599424,45.8669144 54.7607424,46.0013293 C55.3015538,46.0136062 55.6120838,45.8794221 55.6923325,45.5987771 C56.6254166,45.4561332 56.9987506,45.6376415 56.8123346,46.143302 C56.6259185,46.6489624 56.391714,46.8304707 56.1097211,46.6878268 L57.394502,47.2766896 L58.6158508,46.4141943 C60.1277643,46.4318385 60.701089,46.9395353 60.3358249,47.9372847 C59.7025582,48.9798055 57.973383,50.2866109 55.6923325,49.1981656 C55.19212,48.8176077 54.7372554,48.6453211 54.3277389,48.6813058 L52.4424354,46.6878268 Z"></path>
            <path transform="translate(4.442435, 49.580033) scale(-1, 1) rotate(-19.000000) translate(-4.442435, -49.580033)" fill="#FEE0BC" id="路径-50备份" d="M0.442435369,48.6878268 C1.18717343,48.0957469 1.95994244,47.8669144 2.76074241,48.0013293 C3.30155382,48.0136062 3.61208384,47.8794221 3.69233246,47.5987771 C4.62541661,47.4561332 4.99875064,47.6376415 4.81233456,48.143302 C4.62591847,48.6489624 4.39171397,48.8304707 4.10972107,48.6878268 L5.39450198,49.2766896 L6.61585084,48.4141943 C8.12776434,48.4318385 8.70108902,48.9395353 8.33582487,49.9372847 C7.7025582,50.9798055 5.97338295,52.2866109 3.69233246,51.1981656 C3.19211997,50.8176077 2.73725544,50.6453211 2.32773886,50.6813058 L0.442435369,48.6878268 Z"></path>
            <path fill="url(#linearGradient-26)" id="路径-48" d="M25.1522967,32.6807844 L30.129607,35.9592576 L33.7346861,32.4858074 L44.5859612,36.5391615 L47.1884646,50.337481 L52.3796042,46 L55.8457626,49.1742604 L47.8080751,61.2459108 C45.5010688,63.7045639 43.7828548,63.7045639 42.6534332,61.2459108 C42.4014805,59.8124853 41.6776147,54.9257201 40.4818359,46.5856154 L42.791151,68.2790099 L19.9568218,68.5146537 L21.5497951,46.5939696 C21.2391077,56.5260079 19.7657117,61.4099883 17.129607,61.2459108 C15.2420323,60.7442742 11.3240945,57.8716244 5.37579387,52.6279616 L6.88459924,48.5799175 L14.0219352,52.33158 L15.508558,38.8615592 L25.1522967,32.6807844 Z"></path>
            <ellipse ry="3.5" rx="4.5" cy="3.5" cx="28.629607" fill="#483029" id="椭圆形"></ellipse>
            <path fill="#483029" id="路径-51" d="M18.0237531,22 C24.9577876,18.2373303 28.6948843,15.1162017 29.2350433,12.6366142 C30.4059806,16.0011496 37.5922292,21.2119046 40.4463335,21.1633873 C42.0253288,16.6100682 42.4623696,12.3236594 37.4758622,8.1437477 C32.4893548,3.96383601 26.7395443,3.94034865 20.4413887,8.1437477 C16.2069271,11.7030837 15.4010485,16.3218344 18.0237531,22 Z"></path>
        </g>
    </g>
</svg>