<svg xmlns:xlink="http://www.w3.org/1999/xlink" xmlns="http://www.w3.org/2000/svg" version="1.1" viewBox="0 0 600 600" height="600px" width="600px">
    <title>暂无搜索结果</title>
    <defs>
        <linearGradient id="linearGradient-1" y2="44.0501254%" x2="50%" y1="-29.88559%" x1="50%">
            <stop offset="0%" stop-color="#CFDFFA"></stop>
            <stop offset="100%" stop-opacity="0" stop-color="#EAF0FC"></stop>
        </linearGradient>
        <linearGradient id="linearGradient-2" y2="69.8229089%" x2="53.6226986%" y1="33.7484636%" x1="50%">
            <stop offset="0%" stop-color="#CFDFFA"></stop>
            <stop offset="100%" stop-opacity="0" stop-color="#EAF0FC"></stop>
        </linearGradient>
        <linearGradient id="linearGradient-3" y2="66.4977364%" x2="53.6226986%" y1="36.47456%" x1="50%">
            <stop offset="0%" stop-color="#CFDFFA"></stop>
            <stop offset="100%" stop-opacity="0" stop-color="#EAF0FC"></stop>
        </linearGradient>
        <linearGradient id="linearGradient-4" y2="100%" x2="57.28025%" y1="11.4973736%" x1="50%">
            <stop offset="0%" stop-color="#BFD4FA"></stop>
            <stop offset="100%" stop-color="#5792F0"></stop>
        </linearGradient>
        <linearGradient id="linearGradient-5" y2="131.881015%" x2="51.9400923%" y1="11.4973736%" x1="50%">
            <stop offset="0%" stop-color="#BFD4FA"></stop>
            <stop offset="100%" stop-color="#5792F0"></stop>
        </linearGradient>
        <linearGradient id="linearGradient-6" y2="128.49897%" x2="74.2827921%" y1="13.0877007%" x1="50%">
            <stop offset="0%" stop-color="#BFD4FA"></stop>
            <stop offset="100%" stop-color="#5792F0"></stop>
        </linearGradient>
        <linearGradient id="linearGradient-7" y2="131.881015%" x2="54.0733641%" y1="11.4973736%" x1="50%">
            <stop offset="0%" stop-color="#BFD4FA"></stop>
            <stop offset="100%" stop-color="#5792F0"></stop>
        </linearGradient>
        <linearGradient id="linearGradient-8" y2="131.881015%" x2="51.9795749%" y1="11.4973736%" x1="50%">
            <stop offset="0%" stop-color="#BFD4FA"></stop>
            <stop offset="100%" stop-color="#5792F0"></stop>
        </linearGradient>
        <linearGradient id="linearGradient-9" y2="131.881015%" x2="55.3643684%" y1="11.4973736%" x1="50%">
            <stop offset="0%" stop-color="#BFD4FA"></stop>
            <stop offset="100%" stop-color="#5792F0"></stop>
        </linearGradient>
        <linearGradient id="linearGradient-10" y2="53.7022797%" x2="74.2827921%" y1="48.2590898%" x1="50%">
            <stop offset="0%" stop-color="#BFD4FA"></stop>
            <stop offset="100%" stop-color="#5792F0"></stop>
        </linearGradient>
        <linearGradient id="linearGradient-11" y2="93.8707843%" x2="51.9965305%" y1="-91.6326561%" x1="54.6593842%">
            <stop offset="0%" stop-color="#5792F0"></stop>
            <stop offset="100%" stop-opacity="0" stop-color="#BFD4FA"></stop>
        </linearGradient>
        <linearGradient id="linearGradient-12" y2="-11.5290622%" x2="8.73579937%" y1="58.9183998%" x1="90.669778%">
            <stop offset="0%" stop-color="#5792F0"></stop>
            <stop offset="100%" stop-color="#BFD4FA"></stop>
        </linearGradient>
        <linearGradient id="linearGradient-13" y2="3.81708402%" x2="24.9251872%" y1="250.831247%" x1="174.020218%">
            <stop offset="0%" stop-color="#5792F0"></stop>
            <stop offset="100%" stop-color="#BFD4FA"></stop>
        </linearGradient>
        <linearGradient id="linearGradient-14" y2="43.1298194%" x2="133.934769%" y1="-9.74971215%" x1="272.812234%">
            <stop offset="0%" stop-color="#5792F0"></stop>
            <stop offset="100%" stop-color="#BFD4FA"></stop>
        </linearGradient>
        <linearGradient id="linearGradient-15" y2="49.653899%" x2="-17.9385803%" y1="50.7767422%" x1="219.196164%">
            <stop offset="0%" stop-color="#5792F0"></stop>
            <stop offset="100%" stop-color="#BFD4FA"></stop>
        </linearGradient>
        <linearGradient id="linearGradient-16" y2="48.6155961%" x2="-17.9385803%" y1="53.1069689%" x1="219.196164%">
            <stop offset="0%" stop-color="#5792F0"></stop>
            <stop offset="100%" stop-color="#BFD4FA"></stop>
        </linearGradient>
        <linearGradient id="linearGradient-17" y2="-11.5290622%" x2="-17.9385803%" y1="188.087506%" x1="219.196164%">
            <stop offset="0%" stop-color="#5792F0"></stop>
            <stop offset="100%" stop-color="#BFD4FA"></stop>
        </linearGradient>
        <linearGradient id="linearGradient-18" y2="42.6274349%" x2="-17.9385803%" y1="61.2841142%" x1="116.263747%">
            <stop offset="0%" stop-color="#5792F0"></stop>
            <stop offset="100%" stop-color="#BFD4FA"></stop>
        </linearGradient>
        <linearGradient id="linearGradient-19" y2="49.0386084%" x2="-17.9385803%" y1="51.4714624%" x1="116.263747%">
            <stop offset="0%" stop-color="#5792F0"></stop>
            <stop offset="100%" stop-color="#BFD4FA"></stop>
        </linearGradient>
        <linearGradient id="linearGradient-20" y2="-11.5290622%" x2="-17.9385803%" y1="58.9183998%" x1="116.959906%">
            <stop offset="0%" stop-color="#5792F0"></stop>
            <stop offset="100%" stop-color="#BFD4FA"></stop>
        </linearGradient>
        <linearGradient id="linearGradient-21" y2="4.38351894%" x2="6.39235388%" y1="248.368045%" x1="265.683755%">
            <stop offset="0%" stop-color="#5792F0"></stop>
            <stop offset="100%" stop-color="#BFD4FA"></stop>
        </linearGradient>
        <linearGradient id="linearGradient-22" y2="-11.5290622%" x2="-17.9385803%" y1="58.9183998%" x1="116.959906%">
            <stop offset="0%" stop-color="#5792F0"></stop>
            <stop offset="100%" stop-color="#BFD4FA"></stop>
        </linearGradient>
        <linearGradient id="linearGradient-23" y2="73.6326896%" x2="100%" y1="11.7098971%" x1="14.3474826%">
            <stop offset="0%" stop-color="#BFD4FA"></stop>
            <stop offset="100%" stop-color="#5792F0"></stop>
        </linearGradient>
        <linearGradient id="linearGradient-24" y2="-24.285207%" x2="68.3293688%" y1="121.736838%" x1="26.3096272%">
            <stop offset="0%" stop-color="#5792F0"></stop>
            <stop offset="100%" stop-color="#BFD4FA"></stop>
        </linearGradient>
        <linearGradient id="linearGradient-25" y2="44.1197864%" x2="48.2269264%" y1="-31.4050544%" x1="24.9110731%">
            <stop offset="0%" stop-color="#BFD4FA"></stop>
            <stop offset="100%" stop-color="#5792F0"></stop>
        </linearGradient>
        <linearGradient id="linearGradient-26" y2="100%" x2="50%" y1="-19.0038784%" x1="50%">
            <stop offset="0%" stop-color="#FFCDA5"></stop>
            <stop offset="100%" stop-color="#FFE8D1"></stop>
        </linearGradient>
        <linearGradient id="linearGradient-27" y2="100%" x2="50%" y1="0%" x1="50%">
            <stop offset="0%" stop-color="#FFF2DF"></stop>
            <stop offset="100%" stop-color="#FEE0BC"></stop>
        </linearGradient>
        <linearGradient id="linearGradient-28" y2="100%" x2="50%" y1="0%" x1="50%">
            <stop offset="0%" stop-color="#FEE127"></stop>
            <stop offset="100%" stop-color="#F9AB21"></stop>
        </linearGradient>
    </defs>
    <g fill-rule="evenodd" fill="none" stroke-width="1" stroke="none" id="暂无搜索结果">
        <g transform="translate(60.000000, 149.000000)" id="背景">
            <ellipse ry="125" rx="240" cy="383" cx="240" fill="url(#linearGradient-1)" id="椭圆形"></ellipse>
            <path fill="url(#linearGradient-2)" id="云" d="M407,58.1060606 C407,65.3030303 400.090909,71.0606061 391.363636,71.0606061 L343,71.0606061 C334.272727,70.4848485 327,65.0151515 327,57.530303 C327,52.6363636 330.272727,48.3181818 335,46.0151515 C334.636364,45.1515152 334.272727,44.2878788 334.272727,43.4242424 C334.272727,38.530303 339,34.2121212 345.181818,34.2121212 C347.727273,34.2121212 349.909091,35.0757576 351.727273,36.2272727 C356.090909,29.6060606 364.090909,25 373.545455,25 C386.636364,25 397.181818,33.9242424 397.181818,44.8636364 L397.181818,46.0151515 C403,48.030303 407,52.6363636 407,58.1060606 Z"></path>
            <path fill="url(#linearGradient-3)" id="云" d="M83.1111111,0 C95.4472542,0 105.942032,7.88382384 109.831876,18.887904 L119.5,18.8888889 C129.164983,18.8888889 137,26.7239058 137,36.3888889 L137,40.2777778 C137,49.9427609 129.164983,57.7777778 119.5,57.7777778 L47.8333333,57.7777778 C39.1659376,57.7777778 31.9702379,51.4766979 30.5771453,43.2054489 C28.3142484,39.7253788 27,35.5717245 27,31.1111111 C27,18.8381167 36.9492278,8.88888889 49.2222222,8.88888889 C53.1889854,8.88888889 56.9129959,9.92823654 60.1367857,11.7494638 C65.2822134,4.63160868 73.6557772,0 83.1111111,0 Z"></path>
            <g transform="translate(85.000000, 285.000000)" id="草">
                <ellipse ry="2" rx="6.4" cy="39" cx="13.4" fill="#CCDCF6" id="椭圆形"></ellipse>
                <path fill-rule="nonzero" fill="url(#linearGradient-4)" id="路径-42" d="M6.60484923,38.2167348 C7.47636068,23.663125 11.1274012,15.239576 17.5579706,12.946088 C20.0896918,12.6080766 22.9113387,12.0998521 20.9439014,15.3808976 C18.9764641,18.661943 13.708028,17.3850711 8.43976651,38.2080599 C7.9632649,39.0983464 7.3516258,39.101238 6.60484923,38.2167348 Z"></path>
                <path fill-rule="nonzero" fill="url(#linearGradient-5)" id="路径-41" d="M6.48462669,38.0344018 C4.77372163,24.4410458 3.3734035,15.8924506 2.28367228,12.3886162 C0.649075451,7.13286456 -2.83128613,-2.9819845 4.412198,0.844719829 C11.6556821,4.67142416 12.5120839,24.3005649 9.1638425,36.2464988 C8.12313879,39.2693584 7.23006685,39.865326 6.48462669,38.0344018 Z"></path>
            </g>
            <g fill-rule="nonzero" transform="translate(343.060113, 257.713352)" id="草">
                <path fill="url(#linearGradient-6)" id="路径-43" d="M32.9288445,47.7215111 C31.6697734,41.9903277 27.9928319,37.9840272 21.8980202,35.7026096 C14.9379678,33.4652895 11.1247443,30.8058521 15.4799907,28.8775133 C19.157758,28.5851646 27.0011491,25.7209608 32.9288445,42.8291501 C33.3413817,44.4870209 33.3413817,46.1178079 32.9288445,47.7215111 Z"></path>
                <path fill="url(#linearGradient-7)" id="路径-44" d="M33.2382474,48.6305535 C29.572739,34.9480096 25.4087219,24.9585384 20.7461964,18.6621399 C17.3226294,14.3594206 17.5625238,8.202552 20.7461964,6.81093637 C24.005019,6.44853588 30.0111308,5.88801888 34.5334556,29.4686669 C34.8190764,31.0906371 36.4125824,40.5794978 34.5334556,46.70334 C34.2553159,47.5437876 33.8235798,48.1861921 33.2382474,48.6305535 Z"></path>
                <path fill="url(#linearGradient-8)" id="路径-45" d="M34.0848161,45.5402043 C35.7426747,39.4177315 35.5321916,31.4293155 33.4533666,21.5749561 C30.2735953,12.0220353 24.8460872,0.270898283 34.7387259,0 C38.7522158,0.54577434 43.5986093,4.75271743 41.767387,25.7196343 C40.6514617,34.1802042 38.7106608,39.1782681 36.6738532,45.5402043 C35.9633416,45.9368943 35.1003292,45.9368943 34.0848161,45.5402043 Z"></path>
                <path fill="url(#linearGradient-9)" id="路径-46" d="M36.0213612,47.9180155 C35.3577409,30.6060529 38.5261122,18.181998 45.5264751,10.6458508 C47.416863,8.12757072 54.6087295,5.76902471 54.5815797,13.6631979 C53.8307768,17.0576427 52.2242183,24.3043582 42.9601371,35.3607123 C39.908147,39.3512707 37.9023047,45.182586 37.8827536,46.5498132 C37.8697196,47.4612981 37.2492554,47.9173655 36.0213612,47.9180155 Z"></path>
                <path fill="url(#linearGradient-10)" id="路径-47" d="M0,50.2038554 C6.93219082,48.9118167 10.7551998,47.8149848 11.4690268,46.9133599 C12.5397674,45.5609225 21.9725049,39.7540136 27.8547213,44.6452546 C29.1351862,42.9996411 33.2417619,41.7195619 35.5918671,44.6452546 C36.6670542,40.0262048 43.3745332,37.0680138 46.2916845,37.5472523 C49.5768544,37.2901588 59.27517,37.3971252 60,50.2038554 C57.3539207,50.2654603 37.3539207,50.2654603 0,50.2038554 Z"></path>
            </g>
        </g>
        <polygon points="265.073145 358.895231 366.940913 472.274863 391.777685 589.460948 251.361979 542.788408" transform="translate(321.569832, 474.178089) rotate(-50.000000) translate(-321.569832, -474.178089)" opacity="0.3" fill-rule="nonzero" fill="url(#linearGradient-11)" id="路径"></polygon>
        <g transform="translate(153.000000, 212.000000)" id="暂无记录">
            <path fill-rule="nonzero" fill="url(#linearGradient-12)" id="路径" d="M185.982177,229 L56.0178226,229 C46.0653278,229 38,220.965229 38,211.05044 L38,33.94956 C38,24.0347713 46.0653278,16 56.0178226,16 L185.982177,16 C195.934672,16 204,24.0347713 204,33.94956 L204,211.05044 C204,220.965229 195.934672,229 185.982177,229 Z"></path>
            <path fill-rule="nonzero" fill="url(#linearGradient-13)" id="路径" d="M178.047009,234 L53.9529906,234 C44.036307,234 36,225.932737 36,215.977854 L36,41.022146 C36,31.0672631 44.036307,23 53.9529906,23 L178.047009,23 C187.963693,23 196,31.0672631 196,41.022146 L196,215.983294 C196,225.932737 187.963693,234 178.047009,234 Z"></path>
            <path fill-rule="nonzero" fill="#FAFAFA" id="路径" d="M176.4614,212 L57.5385998,212 C56.1361185,212 55,210.866454 55,209.467148 L55,39.5328519 C55,38.1335461 56.1361185,37 57.5385998,37 L176.4614,37 C177.863881,37 179,38.1335461 179,39.5328519 L179,209.467148 C178.994564,210.866454 177.858445,212 176.4614,212 Z"></path>
            <path fill-rule="nonzero" fill="#FFFFFF" id="路径" d="M110.732568,210.998904 C99.655969,210.247146 38.7319638,205.625553 1.00755079,175.081666 C-0.857525098,173.568353 0.0153737937,170.460073 2.40635771,170.24233 C60.9556443,164.94029 53.8260663,60.1515149 54.238118,40.0592879 C54.2706484,38.3554496 55.3549948,37 57.051997,37 L175.272869,37 C176.78011,37 178,38.2248039 178,39.7381171 L171.808382,152.267653 C171.580669,152.88822 171.14693,154.09125 170.718614,154.592058 L125.194514,205.5052 C124.636076,206.158428 111.589202,211.058239 110.732568,210.998904 Z"></path>
            <path fill-rule="nonzero" fill="url(#linearGradient-14)" id="路径" d="M127.565795,171.956757 C134.3599,172.383784 154.60191,172.540541 172,153 C167.877127,173.556757 141.402242,210.745946 107,211 C126.767123,200.805405 126.011623,181.92973 125.385637,173.464865 C125.315484,172.47027 126.578248,171.891892 127.565795,171.956757 Z"></path>
            <g transform="translate(60.828192, 63.000000)" id="编组-2">
                <rect rx="3" height="6" width="80" y="0" x="20.171808" fill-rule="nonzero" fill="url(#linearGradient-15)" id="矩形"></rect>
                <rect rx="3" height="6" width="80" y="20" x="18.171808" fill-rule="nonzero" fill="url(#linearGradient-15)" id="矩形备份"></rect>
                <rect rx="3" height="6" width="40" y="40" x="16.171808" fill-rule="nonzero" fill="url(#linearGradient-16)" id="矩形备份-2"></rect>
                <rect rx="3" height="6" width="6" y="40" x="62.171808" fill-rule="nonzero" fill="url(#linearGradient-17)" id="矩形备份-3"></rect>
                <rect rx="3" height="6" width="80" y="60" x="13.171808" transform="translate(53.171808, 63.000000) rotate(2.000000) translate(-53.171808, -63.000000)" fill-rule="nonzero" fill="url(#linearGradient-15)" id="矩形备份-7"></rect>
                <rect rx="3" height="6" width="80" y="80" x="7.17180797" transform="translate(47.171808, 83.000000) rotate(4.000000) translate(-47.171808, -83.000000)" fill-rule="nonzero" fill="url(#linearGradient-15)" id="矩形备份-6"></rect>
                <rect rx="3" height="6" width="40" y="99.2687839" x="0.216531063" transform="translate(20.216531, 102.268784) rotate(7.000000) translate(-20.216531, -102.268784)" fill-rule="nonzero" fill="url(#linearGradient-16)" id="矩形备份-5"></rect>
                <rect rx="3" height="6" width="6" y="102.802995" x="46.0003695" transform="translate(49.000369, 105.802995) rotate(7.000000) translate(-49.000369, -105.802995)" fill="#D8D8D8" id="矩形备份-4"></rect>
            </g>
            <g fill-rule="nonzero" transform="translate(92.000000, 0.000000)" id="编组">
                <rect height="18" width="52" y="23" x="1" fill="url(#linearGradient-18)" id="矩形"></rect>
                <polygon points="4 16 56 16 52 23 0 23" fill="url(#linearGradient-19)" id="矩形"></polygon>
                <path fill="url(#linearGradient-20)" id="形状结合" d="M28,0 C32.9705627,0 37,4.02943725 37,9 C37,13.9705627 32.9705627,18 28,18 C23.0294373,18 19,13.9705627 19,9 C19,4.02943725 23.0294373,0 28,0 Z M28,4 C25.2385763,4 23,6.23857625 23,9 C23,11.7614237 25.2385763,14 28,14 C30.7614237,14 33,11.7614237 33,9 C33,6.23857625 30.7614237,4 28,4 Z"></path>
            </g>
        </g>
        <g fill-rule="nonzero" transform="translate(257.926606, 336.197248)" id="放大镜">
            <path transform="translate(67.099870, 68.343911) scale(-1, 1) translate(-67.099870, -68.343911)" fill="url(#linearGradient-21)" id="形状结合" d="M117.604875,18.2230273 C139.731363,40.3113598 139.731363,76.1235982 117.604875,98.2119307 C97.719956,118.062504 66.7318074,120.073532 44.5971896,104.245015 L16.6083407,132.184712 C12.8067021,135.97979 6.64998404,135.97979 2.84834548,132.184712 C-0.944814722,128.398099 -0.950121503,122.253477 2.83649233,118.460317 L2.84834548,118.448464 L30.9399332,90.4047839 C15.6226311,68.3589757 17.8018822,37.8649021 37.4776867,18.2230273 C59.6042053,-3.86527465 95.4783554,-3.86527465 117.604875,18.2230273 Z M51.4641971,31.7378154 C37.1726962,46.0293164 37.1867445,69.2144659 51.4955749,83.5232963 C65.8044053,97.8321267 88.9895548,97.846175 103.281056,83.5546741 C117.572557,69.2631732 117.558508,46.0780237 103.249678,31.7691933 C88.9408475,17.4603628 65.755698,17.4463145 51.4641971,31.7378154 Z"></path>
            <path transform="translate(72.485209, 67.514791) scale(-1, 1) translate(-72.485209, -67.514791)" fill="url(#linearGradient-22)" id="形状结合" d="M123.570473,16.4295273 C145.476509,38.3355636 145.476509,73.8522658 123.570473,95.758302 C104.003094,115.325681 73.5760357,117.414667 51.6899289,102.025261 L21.5243477,132.189377 C17.7374072,135.976317 11.5975635,135.976317 7.81062303,132.189377 C4.02368252,128.402436 4.02368252,122.262593 7.81062303,118.475652 L37.9749315,88.3103454 C22.5853158,66.4242182 24.6742378,35.9969871 44.2416976,16.4295273 C66.1477341,-5.47650909 101.664437,-5.47650909 123.570473,16.4295273 Z M57.8031756,30.6298908 C43.5116747,44.9213917 43.525723,68.1065412 57.8345534,82.4153716 C72.1433838,96.724202 95.3285333,96.7382504 109.620034,82.4467495 C123.911535,68.1552485 123.897487,44.970099 109.588656,30.6612686 C95.279826,16.3524382 72.0946765,16.3383899 57.8031756,30.6298908 Z"></path>
        </g>
        <g transform="translate(299.007194, 372.000000)" id="人物">
            <path transform="translate(21.492806, 89.093742) scale(-1, 1) rotate(-18.000000) translate(-21.492806, -89.093742)" fill-rule="nonzero" fill="url(#linearGradient-23)" id="路径-52备份-2" d="M23.0624703,86.825886 L22.7176475,89.0793761 C21.3133404,89.1232936 19.7861765,89.5360842 18.1361558,90.3177478 C17.0743733,90.9989728 17.0271163,91.3076365 16.9929346,91.8942014 C16.9701468,92.2852447 19.9701038,92.2852447 25.9928057,91.8942014 L25.9928057,86 L23.0624703,86.825886 Z"></path>
            <path transform="translate(28.492806, 91.093742) scale(-1, 1) rotate(-8.000000) translate(-28.492806, -91.093742)" fill-rule="nonzero" fill="url(#linearGradient-23)" id="路径-52备份" d="M30.0624703,88.825886 L29.7176475,91.0793761 C28.3133404,91.1232936 26.7861765,91.5360842 25.1361558,92.3177478 C24.0743733,92.9989728 24.0271163,93.3076365 23.9929346,93.8942014 C23.9701468,94.2852447 26.9701038,94.2852447 32.9928057,93.8942014 L32.9928057,88 L30.0624703,88.825886 Z"></path>
            <path fill-rule="nonzero" fill="url(#linearGradient-24)" id="路径-63" d="M21.1038132,44.1536316 C26.6059711,45.4393365 30.211395,47.0667391 31.9200847,49.0358395 C33.4002491,50.690254 33.1267015,53.2921151 32.3738863,55.8339197 C31.8720095,57.5284561 28.1498648,68.3659579 21.2074522,88.3464249 L15.9857276,86.4777442 C19.3676845,72.3646448 21.4571801,64.4012498 22.2542144,62.587559 C23.449766,59.8670229 23.0161861,54.3429038 21.1038132,52.0254257 C19.8288979,50.4804403 17.7895361,48.1583061 14.9857276,45.0590233 L21.1038132,44.1536316 Z"></path>
            <path fill-rule="nonzero" fill="url(#linearGradient-25)" id="路径-62" d="M9.36294916,47.114679 C8.24121671,51.9569785 8.67295717,55.3688082 10.6581705,57.3501684 C12.5717696,57.576773 16.1418214,57.8585238 21.3683259,58.1954206 C21.5687522,68.4226996 21.8229023,75.529914 22.130776,79.5170641 C22.4386497,83.5042141 22.7767121,86.9554762 23.1449631,89.8708503 L28.4682921,89.5854746 L29.7554633,59.3036696 C29.7310941,54.6345953 28.8299336,51.3903569 27.0519818,49.5709543 C25.27403,47.7515517 23.3388794,46.6648898 21.2465299,46.3109686 L9.36294916,47.114679 Z"></path>
            <path fill="#FEE0BC" id="胳膊-path" d="M2.96412499,32.6402265 L0.202463578,37.5135958 C0.202463578,37.5135958 -0.0578824924,37.9534478 0.0118753061,38.3734259 C0.0853701294,38.812903 0.487723145,39.1378858 0.487723145,39.1378858 L9.71433283,43.7439533 L9.77146169,39.7112309 L5.24869288,37.609091 L7.81976601,33.6914212 L2.96412499,32.6402265 Z"></path>
            <path fill="#FEE0BC" id="胳膊-path" d="M37.0408093,32.6402265 L39.7987337,37.5135958 C39.7987337,37.5135958 40.0578342,37.9534478 39.9880765,38.3734259 C39.9158271,38.812903 39.5134742,39.1378858 39.5134742,39.1378858 L30.3231222,43.9613784 L30.2409469,39.7112309 L34.7587328,37.609091 L32.1913968,33.6914212 L37.0408093,32.6402265 Z"></path>
            <g transform="translate(11.673809, 0.000000)" id="脑袋">
                <rect height="4.98347717" width="4.98347717" y="18.0651047" x="5.71256825" fill="url(#linearGradient-26)" id="矩形"></rect>
                <ellipse ry="1.55733662" rx="1" cy="14.0160295" cx="14.550249" transform="translate(14.550249, 14.016030) rotate(22.000000) translate(-14.550249, -14.016030)" fill="#FEE0BC" id="椭圆形"></ellipse>
                <ellipse ry="1.55733662" rx="1" cy="14.0160295" cx="1.46862144" transform="translate(1.468621, 14.016030) scale(-1, 1) rotate(23.000000) translate(-1.468621, -14.016030)" fill="#FEE0BC" id="椭圆形备份-2"></ellipse>
                <circle r="6.22934646" cy="13.0816276" cx="8.20430683" fill="url(#linearGradient-27)" id="椭圆形"></circle>
                <ellipse ry="2.18027126" rx="2.80320591" cy="2.18027126" cx="7.69796791" fill="#483029" id="椭圆形"></ellipse>
                <path fill="#483029" id="路径-51" d="M1.09121404,13.7045622 C5.41066433,11.3606649 7.73863136,9.41640579 8.07511512,7.87178482 C8.80453252,9.96767049 13.2810958,13.2136303 15.0590162,13.1834072 C16.0426271,10.3469869 16.3148749,7.6768344 13.2086067,5.07302259 C10.1023385,2.46921078 6.52058233,2.45457969 2.59724302,5.07302259 C-0.0405498459,7.29025628 -0.542559506,10.1674362 1.09121404,13.7045622 Z"></path>
            </g>
            <path fill="url(#linearGradient-28)" id="衣服" d="M17.3599737,20.6713323 C17.6927138,21.0306511 18.4889223,21.88748 19.7485993,23.2418189 C21.4699804,21.4350642 22.330671,20.5316869 22.330671,20.5316869 L27.2895457,21.6257456 C27.2895457,21.6257456 28.6509591,21.8541621 29.4812715,22.6775123 C31.775228,24.9520453 35.5802041,29.3715167 35.5802041,29.3715167 L38.2481752,32.3361777 C37.5837252,33.137822 36.8141612,33.8455109 35.9604523,34.4399611 C34.6214797,35.3595065 32.8162356,36.0661465 32.8162356,36.0661465 L30.7205069,34.0579328 L30.7205069,48.114679 L9.37549028,48.114679 L9.37549028,33.8660428 L8.13625504,35.3967836 C8.13625504,35.3967836 6.30108978,35.0377719 4.7052939,34.2491973 C3.64496149,33.6996031 2.65351343,33.0254672 1.75182482,32.2409833 L8.04150464,24.4950872 C8.43258388,24.0898027 8.84588864,23.7067206 9.27949317,23.3476258 C9.673448,23.0339733 10.0874083,22.7464851 10.5187284,22.4869984 C11.0450425,22.2593094 11.5861057,22.0676073 12.1382119,21.9132052 C14.0818414,21.3755633 17.3599737,20.6713323 17.3599737,20.6713323 Z"></path>
            <path fill="#483029" id="Fill-1633" d="M31,48.5307823 L9,48.5307823 L9,35.2172159 C9,34.5448824 9.55241449,34 10.2336006,34 L29.7663994,34 C30.447783,34 31,34.5448824 31,35.2172159 L31,48.5307823 Z"></path>
            <path fill="#483029" id="Fill-1634" d="M32,48 L8,48 L8,48.4219135 C8,48.5678784 8.13099806,48.6863646 8.29259097,48.6863646 L31.7076245,48.6863646 C31.8692174,48.6863646 32,48.5678784 32,48.4219135 L32,48 Z"></path>
        </g>
    </g>
</svg>